<svg id="svg" version="1.1" xmlns="http://www.w3.org/2000/svg" xmlns:xlink="http://www.w3.org/1999/xlink" width="400" height="400" viewBox="0, 0, 400,400"><g id="svgg"><path id="path0" d="M168.128 78.781 C 166.934 80.257,165.731 84.034,165.383 87.400 C 165.223 88.940,164.691 91.112,164.201 92.227 C 163.710 93.341,163.181 95.444,163.026 96.899 C 162.696 99.979,161.846 103.422,161.232 104.161 C 160.997 104.445,160.505 106.640,160.139 109.039 C 159.774 111.437,159.076 114.300,158.589 115.400 C 158.102 116.501,157.589 118.703,157.449 120.298 C 157.309 121.891,156.752 124.372,156.211 125.810 C 155.669 127.248,155.015 129.994,154.756 131.912 C 154.497 133.831,153.851 136.453,153.321 137.741 C 152.790 139.028,152.197 141.470,152.004 143.168 C 151.579 146.894,151.242 148.339,150.550 149.410 C 150.262 149.855,149.678 152.285,149.253 154.810 C 148.828 157.334,148.117 160.300,147.674 161.400 C 147.231 162.500,146.676 164.912,146.440 166.761 C 146.205 168.610,145.659 170.860,145.228 171.761 C 144.797 172.662,144.181 175.308,143.860 177.641 C 143.528 180.058,142.925 182.570,142.460 183.483 C 142.011 184.363,141.530 186.055,141.392 187.242 C 140.985 190.751,140.347 193.726,139.753 194.883 C 139.447 195.479,138.843 198.067,138.411 200.634 C 137.979 203.202,137.344 205.731,137.001 206.255 C 136.658 206.779,136.196 208.691,135.975 210.504 C 135.538 214.092,134.595 217.833,134.040 218.175 C 133.848 218.294,133.464 220.238,133.187 222.495 C 132.881 224.992,132.323 227.383,131.763 228.600 C 131.253 229.707,130.652 232.143,130.415 234.057 C 130.004 237.387,129.413 239.759,128.785 240.600 C 128.433 241.072,127.749 244.498,127.388 247.600 C 127.248 248.810,126.789 250.478,126.369 251.307 C 125.949 252.136,125.418 254.116,125.189 255.707 C 124.601 259.794,123.969 262.510,123.458 263.150 C 123.216 263.453,122.628 265.883,122.151 268.550 C 121.675 271.218,120.911 274.390,120.455 275.600 C 119.999 276.810,119.620 278.527,119.613 279.416 C 119.598 281.335,118.627 285.259,117.859 286.510 C 117.558 287.000,117.089 289.198,116.816 291.395 C 116.542 293.593,115.977 296.060,115.560 296.879 C 115.142 297.698,114.800 299.092,114.800 299.976 C 114.800 301.766,114.776 301.753,118.800 302.191 C 121.217 302.454,123.161 302.964,125.000 303.817 C 125.660 304.124,128.067 304.670,130.349 305.031 C 132.630 305.392,135.284 306.036,136.246 306.462 C 137.208 306.887,139.558 307.413,141.468 307.630 C 143.378 307.847,145.757 308.386,146.756 308.828 C 147.755 309.270,150.558 309.963,152.986 310.369 C 155.414 310.775,158.210 311.475,159.200 311.925 C 160.190 312.375,162.562 312.913,164.471 313.122 C 166.380 313.330,168.720 313.862,169.671 314.304 C 170.622 314.745,173.380 315.418,175.800 315.798 C 178.220 316.179,180.861 316.826,181.669 317.237 C 182.476 317.648,184.673 318.159,186.550 318.372 C 188.427 318.585,191.097 319.197,192.482 319.732 C 193.867 320.267,196.620 320.917,198.600 321.178 C 200.580 321.439,203.190 322.075,204.400 322.593 C 205.610 323.110,208.201 323.725,210.159 323.959 C 212.116 324.194,214.456 324.734,215.359 325.160 C 216.261 325.586,218.958 326.234,221.350 326.600 C 223.743 326.966,226.353 327.604,227.150 328.019 C 227.948 328.433,230.130 328.948,232.000 329.164 C 235.409 329.557,237.758 330.170,238.710 330.915 C 239.352 331.418,239.267 331.522,240.913 328.200 C 241.841 326.327,242.391 324.539,242.575 322.800 C 242.910 319.643,243.529 316.975,244.269 315.499 C 244.573 314.894,245.097 312.557,245.433 310.306 C 245.770 308.055,246.395 305.422,246.823 304.456 C 247.620 302.653,247.832 301.203,247.300 301.196 C 246.063 301.179,239.551 299.603,238.536 299.074 C 237.841 298.713,235.771 298.243,233.936 298.030 C 230.630 297.648,228.759 297.149,226.809 296.132 C 226.254 295.842,225.419 295.604,224.952 295.602 C 223.509 295.598,217.068 294.387,216.622 294.037 C 215.851 293.430,213.439 292.833,210.127 292.429 C 208.326 292.209,206.076 291.677,205.127 291.246 C 204.177 290.816,201.420 290.151,199.000 289.769 C 196.580 289.388,193.961 288.744,193.180 288.339 C 192.399 287.934,189.951 287.349,187.740 287.039 C 185.529 286.728,182.928 286.123,181.960 285.694 C 180.992 285.265,178.592 284.697,176.627 284.431 C 174.661 284.166,172.411 283.673,171.627 283.335 C 169.293 282.330,167.975 282.012,164.485 281.612 C 159.393 281.029,156.817 278.659,158.171 275.804 C 158.517 275.075,158.800 273.864,158.800 273.113 C 158.800 270.934,159.589 267.137,160.404 265.400 C 160.816 264.520,161.422 261.968,161.751 259.730 C 162.080 257.491,162.648 255.080,163.015 254.371 C 163.381 253.663,163.945 251.264,164.268 249.042 C 164.591 246.819,165.188 244.280,165.593 243.400 C 166.435 241.572,166.659 240.587,167.181 236.397 C 167.387 234.745,167.996 232.405,168.535 231.197 C 169.078 229.978,169.629 227.780,169.772 226.260 C 169.914 224.753,170.544 221.963,171.172 220.060 C 171.800 218.157,172.444 215.430,172.603 214.000 C 172.974 210.677,173.704 209.283,175.456 208.551 C 176.870 207.960,177.604 208.041,179.800 209.029 C 180.460 209.326,183.133 209.928,185.739 210.368 C 188.345 210.807,190.685 211.331,190.939 211.531 C 191.786 212.201,194.244 212.817,197.587 213.198 C 199.408 213.406,201.641 213.927,202.549 214.355 C 203.457 214.784,206.177 215.437,208.593 215.806 C 211.009 216.176,213.682 216.834,214.533 217.268 C 215.400 217.710,217.516 218.208,219.340 218.398 C 222.708 218.750,223.108 218.849,225.800 220.004 C 226.680 220.382,229.110 220.916,231.200 221.192 C 233.290 221.467,235.666 222.031,236.480 222.444 C 237.294 222.857,239.274 223.390,240.880 223.627 C 246.108 224.400,247.930 224.833,248.418 225.422 C 248.682 225.740,249.294 226.000,249.778 226.000 C 250.263 226.000,252.344 226.289,254.403 226.643 C 258.545 227.355,258.940 227.210,259.444 224.800 C 259.559 224.250,260.002 222.990,260.428 222.000 C 260.854 221.010,261.455 218.490,261.764 216.400 C 262.073 214.310,262.702 211.730,263.163 210.667 C 263.623 209.604,264.005 208.254,264.012 207.667 C 264.019 207.080,264.362 204.890,264.775 202.800 C 265.646 198.395,265.708 198.520,262.301 197.807 C 260.864 197.506,258.904 196.912,257.944 196.487 C 256.985 196.061,254.592 195.497,252.627 195.231 C 250.661 194.966,248.411 194.473,247.627 194.135 C 245.293 193.130,243.975 192.812,240.483 192.412 C 238.659 192.203,236.499 191.682,235.683 191.254 C 234.867 190.827,232.271 190.182,229.913 189.821 C 227.555 189.461,224.839 188.819,223.878 188.393 C 222.917 187.968,220.265 187.340,217.984 186.998 C 215.703 186.655,213.109 186.043,212.219 185.637 C 211.328 185.231,208.800 184.617,206.600 184.273 C 204.400 183.928,201.790 183.292,200.800 182.858 C 199.810 182.424,197.431 181.881,195.514 181.651 C 193.570 181.418,191.270 180.860,190.314 180.389 C 189.371 179.926,187.642 179.442,186.472 179.314 C 183.302 178.969,181.765 177.772,181.929 175.778 C 182.000 174.916,182.199 174.119,182.370 174.006 C 182.542 173.893,182.912 172.000,183.193 169.800 C 183.474 167.600,184.122 164.790,184.634 163.555 C 185.145 162.320,185.752 159.800,185.981 157.955 C 186.430 154.342,186.945 152.195,187.540 151.461 C 187.948 150.957,188.603 147.846,189.025 144.400 C 189.174 143.190,189.639 141.521,190.060 140.692 C 190.480 139.863,191.008 137.703,191.232 135.892 C 191.698 132.128,192.320 129.667,193.026 128.800 C 193.295 128.470,193.788 126.180,194.123 123.710 C 195.131 116.265,197.719 114.428,203.250 117.230 C 204.047 117.634,206.233 118.156,208.107 118.388 C 211.516 118.812,213.792 119.398,214.664 120.077 C 214.920 120.276,217.080 120.722,219.464 121.069 C 221.849 121.415,224.430 122.014,225.200 122.400 C 226.845 123.225,227.912 123.471,232.149 124.000 C 233.881 124.216,236.041 124.746,236.949 125.177 C 237.857 125.609,240.405 126.233,242.612 126.564 C 244.818 126.896,247.472 127.542,248.510 128.001 C 249.547 128.460,251.962 129.013,253.877 129.231 C 255.859 129.456,258.317 130.040,259.580 130.586 C 260.801 131.114,262.880 131.661,264.200 131.803 C 267.203 132.126,269.872 132.752,271.301 133.469 C 271.906 133.773,274.225 134.294,276.455 134.627 C 278.684 134.961,281.237 135.586,282.129 136.017 C 285.890 137.834,287.499 135.921,288.752 128.144 C 289.137 125.755,289.761 123.214,290.138 122.498 C 290.515 121.781,291.007 119.711,291.231 117.898 C 291.708 114.047,292.325 111.654,293.069 110.769 C 294.988 108.486,293.149 106.689,288.238 106.046 C 286.009 105.754,283.480 105.138,282.282 104.594 C 281.032 104.027,278.813 103.499,276.729 103.274 C 274.820 103.068,272.480 102.538,271.529 102.096 C 270.578 101.655,267.834 100.984,265.432 100.605 C 263.030 100.226,260.420 99.582,259.632 99.172 C 258.844 98.763,256.670 98.252,254.800 98.036 C 251.436 97.648,249.567 97.153,247.609 96.132 C 247.054 95.842,246.125 95.604,245.544 95.602 C 243.678 95.598,238.110 94.403,236.328 93.625 C 235.378 93.209,232.999 92.677,231.041 92.442 C 229.084 92.207,226.744 91.672,225.841 91.254 C 224.939 90.836,222.234 90.184,219.832 89.805 C 217.430 89.426,214.820 88.788,214.032 88.386 C 213.244 87.984,210.787 87.392,208.571 87.070 C 206.355 86.748,203.745 86.131,202.771 85.699 C 201.797 85.267,199.380 84.696,197.400 84.429 C 195.420 84.163,192.990 83.586,192.000 83.147 C 191.010 82.707,188.760 82.160,187.000 81.931 C 183.953 81.534,182.951 81.281,178.800 79.858 C 177.810 79.519,175.385 79.041,173.412 78.797 C 171.438 78.552,169.638 78.206,169.412 78.027 C 169.171 77.837,168.639 78.149,168.128 78.781 " stroke="none" fill="#f9fafb" fill-rule="evenodd"></path><path id="path1" d="M167.400 75.955 C 165.548 76.767,164.886 78.499,164.217 84.286 C 164.085 85.433,163.533 87.323,162.992 88.486 C 162.451 89.649,162.006 91.242,162.004 92.027 C 161.998 94.363,161.182 98.116,160.402 99.400 C 159.964 100.120,159.479 102.199,159.187 104.600 C 158.884 107.096,158.331 109.422,157.716 110.788 C 157.070 112.221,156.597 114.286,156.342 116.779 C 156.082 119.316,155.690 121.008,155.163 121.860 C 154.662 122.670,154.141 124.792,153.736 127.668 C 153.347 130.434,152.799 132.697,152.331 133.475 C 151.851 134.275,151.412 136.142,151.154 138.475 C 150.900 140.779,150.371 143.040,149.769 144.400 C 149.182 145.724,148.575 148.273,148.245 150.800 C 147.886 153.555,147.407 155.490,146.853 156.425 C 146.270 157.410,145.883 159.074,145.598 161.814 C 145.352 164.189,144.886 166.357,144.437 167.220 C 143.638 168.751,143.007 171.498,142.562 175.370 C 142.413 176.674,141.931 178.349,141.492 179.093 C 140.966 179.985,140.571 181.700,140.333 184.123 C 140.089 186.619,139.661 188.443,139.000 189.800 C 138.367 191.103,137.821 193.349,137.433 196.244 C 137.035 199.220,136.555 201.170,135.979 202.146 C 135.370 203.178,135.032 204.643,134.824 207.155 C 134.627 209.543,134.242 211.278,133.650 212.453 C 133.135 213.474,132.520 215.945,132.168 218.400 C 131.837 220.710,131.225 223.320,130.807 224.200 C 129.799 226.320,129.222 228.939,129.210 231.440 C 129.203 232.795,128.886 234.072,128.266 235.240 C 127.643 236.412,127.101 238.600,126.643 241.790 C 126.264 244.425,125.796 246.679,125.602 246.799 C 124.898 247.234,124.315 249.475,124.025 252.868 C 123.814 255.333,123.427 256.953,122.688 258.468 C 121.967 259.948,121.519 261.782,121.225 264.462 C 120.932 267.133,120.497 268.920,119.812 270.262 C 119.110 271.637,118.713 273.309,118.445 276.020 C 118.191 278.590,117.802 280.291,117.256 281.220 C 116.757 282.068,116.273 283.988,116.001 286.200 C 115.461 290.595,115.230 291.627,114.615 292.400 C 113.783 293.446,113.200 296.200,113.200 299.084 C 113.200 302.359,113.642 302.950,116.400 303.363 C 117.390 303.511,119.010 304.048,120.000 304.557 C 121.217 305.182,123.113 305.628,125.853 305.934 C 128.667 306.248,130.508 306.688,131.871 307.373 C 133.225 308.053,134.972 308.474,137.493 308.726 C 139.788 308.957,141.737 309.399,142.726 309.915 C 143.593 310.367,145.179 310.850,146.251 310.989 C 151.147 311.623,153.616 312.102,153.837 312.461 C 154.270 313.161,156.031 313.609,159.939 314.014 C 162.592 314.290,164.347 314.705,165.593 315.354 C 166.809 315.987,168.705 316.447,171.389 316.762 C 174.018 317.069,176.065 317.560,177.389 318.201 C 178.738 318.854,180.585 319.290,183.000 319.527 C 185.222 319.745,187.213 320.192,188.200 320.695 C 189.107 321.157,191.794 321.802,194.400 322.184 C 196.930 322.554,199.270 323.087,199.600 323.368 C 200.543 324.171,201.444 324.390,205.548 324.815 C 208.178 325.088,209.955 325.508,211.193 326.149 C 212.338 326.742,214.377 327.258,216.759 327.559 C 218.827 327.820,221.302 328.391,222.260 328.828 C 224.274 329.745,227.390 330.399,229.755 330.402 C 230.778 330.402,232.307 330.855,233.800 331.600 C 238.468 333.928,242.813 332.785,243.359 329.084 C 243.463 328.378,243.740 326.284,243.974 324.432 C 244.208 322.579,244.644 320.779,244.944 320.432 C 245.636 319.627,246.264 316.971,246.605 313.400 C 246.765 311.733,247.246 309.866,247.795 308.786 C 250.274 303.910,249.493 300.086,245.839 299.209 C 244.607 298.914,243.600 298.549,243.600 298.399 C 243.600 297.919,240.608 297.210,237.073 296.851 C 234.753 296.616,233.160 296.220,232.155 295.626 C 231.171 295.046,229.505 294.621,227.234 294.371 C 222.638 293.866,221.521 293.618,220.739 292.929 C 220.046 292.319,214.800 291.239,212.400 291.212 C 211.630 291.204,210.370 290.811,209.600 290.339 C 208.660 289.763,206.831 289.303,204.031 288.936 C 201.738 288.635,199.308 288.104,198.631 287.756 C 196.709 286.765,195.270 286.414,191.534 286.020 C 189.108 285.765,187.488 285.347,186.137 284.628 C 185.007 284.026,183.555 283.600,182.636 283.600 C 180.253 283.600,175.876 282.770,175.200 282.190 C 174.365 281.472,171.929 280.894,168.400 280.575 C 166.708 280.422,164.877 279.996,164.200 279.598 C 163.540 279.209,162.550 278.759,162.000 278.598 C 159.552 277.881,159.217 274.184,161.243 270.247 C 161.686 269.386,162.309 266.803,162.641 264.447 C 162.995 261.930,163.623 259.385,164.181 258.200 C 164.794 256.898,165.204 255.119,165.356 253.100 C 165.505 251.126,165.960 249.121,166.608 247.581 C 167.199 246.177,167.852 243.449,168.165 241.081 C 168.523 238.367,168.997 236.503,169.581 235.517 C 170.182 234.502,170.571 232.924,170.814 230.517 C 171.217 226.523,171.504 225.256,172.200 224.400 C 172.712 223.770,173.368 220.645,173.837 216.600 C 174.175 213.686,175.903 210.800,177.310 210.800 C 178.999 210.800,186.324 212.166,186.800 212.569 C 187.742 213.368,188.646 213.590,192.658 214.006 C 195.233 214.273,196.998 214.697,198.302 215.363 C 199.634 216.042,201.453 216.470,204.400 216.798 C 206.710 217.055,208.870 217.497,209.200 217.782 C 210.162 218.611,212.492 219.217,216.174 219.597 C 218.253 219.812,220.194 220.268,221.102 220.757 C 221.968 221.222,224.391 221.814,226.847 222.160 C 229.359 222.514,231.760 223.105,232.723 223.607 C 233.807 224.172,235.636 224.577,238.189 224.819 C 241.016 225.086,242.471 225.434,243.713 226.139 C 244.904 226.814,246.559 227.231,249.339 227.555 C 251.529 227.811,254.080 228.381,255.085 228.839 C 258.066 230.197,258.730 230.071,260.445 227.824 C 261.968 225.829,262.181 225.068,263.007 218.677 C 263.144 217.620,263.671 215.910,264.178 214.877 C 264.806 213.600,265.186 211.913,265.366 209.600 C 265.523 207.588,265.942 205.547,266.393 204.600 C 268.548 200.076,268.299 197.533,265.631 196.801 C 264.844 196.585,263.314 195.957,262.232 195.404 C 261.102 194.827,259.584 194.400,258.665 194.400 C 256.257 194.400,251.879 193.573,251.200 192.990 C 250.372 192.278,247.951 191.699,244.407 191.362 C 242.537 191.185,240.780 190.742,239.727 190.182 C 238.684 189.627,236.928 189.181,235.121 189.011 C 231.640 188.684,229.222 188.112,228.400 187.421 C 227.686 186.820,223.703 186.000,221.500 186.000 C 220.634 186.000,218.712 185.464,217.200 184.800 C 215.696 184.140,213.881 183.600,213.166 183.600 C 210.983 183.600,206.636 182.736,205.994 182.175 C 205.249 181.525,202.706 180.951,199.000 180.595 C 197.355 180.438,195.458 179.951,194.400 179.416 C 193.268 178.844,191.223 178.344,188.891 178.071 C 186.851 177.832,184.981 177.512,184.736 177.360 C 183.927 176.861,184.571 169.663,185.602 167.686 C 186.124 166.684,186.633 164.707,186.836 162.891 C 187.305 158.702,187.563 157.605,188.409 156.200 C 188.830 155.502,189.390 153.140,189.747 150.556 C 190.145 147.676,190.655 145.613,191.197 144.694 C 191.789 143.692,192.126 142.174,192.351 139.511 C 192.539 137.280,192.956 135.186,193.374 134.373 C 194.418 132.340,194.766 130.967,195.197 127.200 C 195.734 122.498,197.921 118.182,199.544 118.620 C 201.865 119.247,203.889 119.566,205.640 119.583 C 206.772 119.593,208.159 119.960,209.240 120.534 C 210.413 121.157,212.601 121.699,215.794 122.158 C 218.431 122.536,220.861 123.079,221.194 123.362 C 222.167 124.191,223.184 124.447,226.940 124.806 C 229.350 125.037,231.138 125.464,232.540 126.143 C 233.878 126.791,235.918 127.298,238.359 127.588 C 240.427 127.833,242.878 128.380,243.807 128.803 C 246.034 129.818,248.542 130.375,251.000 130.403 C 252.380 130.418,253.741 130.793,255.390 131.613 C 256.880 132.353,258.403 132.800,259.435 132.800 C 261.862 132.800,265.136 133.498,267.046 134.422 C 267.974 134.872,270.385 135.431,272.460 135.678 C 274.895 135.969,276.888 136.466,278.172 137.105 C 279.799 137.915,280.791 138.096,283.858 138.143 C 288.788 138.219,288.918 138.084,289.793 132.007 C 290.157 129.480,290.581 127.320,290.736 127.207 C 291.446 126.684,292.099 124.312,292.440 121.018 C 292.657 118.918,293.131 116.811,293.578 115.952 C 294.415 114.347,295.200 110.692,295.200 108.403 C 295.200 106.169,294.507 105.572,291.179 104.943 C 289.551 104.635,287.481 104.026,286.580 103.590 C 285.679 103.154,283.065 102.550,280.771 102.247 C 278.224 101.911,276.055 101.387,275.200 100.901 C 274.320 100.400,272.335 99.933,269.858 99.644 C 267.276 99.343,265.194 98.842,263.820 98.192 C 262.416 97.528,260.679 97.118,258.562 96.950 C 256.398 96.779,254.558 96.337,252.733 95.550 C 251.266 94.918,249.466 94.399,248.733 94.397 C 246.410 94.392,242.233 93.573,241.598 92.999 C 240.858 92.328,238.358 91.755,234.600 91.395 C 232.955 91.238,231.058 90.751,230.000 90.216 C 228.863 89.642,226.820 89.144,224.455 88.867 C 222.363 88.621,219.973 88.071,219.041 87.620 C 217.127 86.694,213.858 86.000,211.405 86.000 C 210.354 86.000,208.982 85.606,207.760 84.954 C 206.285 84.168,204.676 83.778,201.258 83.378 C 198.507 83.057,196.456 82.616,196.058 82.261 C 195.210 81.505,192.913 80.925,189.400 80.580 C 187.860 80.429,185.700 79.894,184.600 79.392 C 183.402 78.845,181.094 78.307,178.847 78.052 C 176.537 77.790,174.476 77.303,173.485 76.787 C 171.676 75.844,168.610 75.425,167.400 75.955 M173.200 77.411 C 174.850 77.936,177.640 78.570,179.400 78.822 C 181.160 79.073,182.815 79.455,183.077 79.670 C 183.648 80.137,187.346 81.011,190.400 81.401 C 191.610 81.556,193.140 81.918,193.800 82.207 C 195.702 83.038,197.615 83.516,200.200 83.807 C 201.520 83.955,204.130 84.583,206.000 85.203 C 207.870 85.822,210.750 86.504,212.400 86.718 C 214.050 86.932,216.390 87.494,217.600 87.967 C 218.810 88.440,221.171 89.004,222.847 89.219 C 224.523 89.435,227.133 90.041,228.647 90.567 C 230.161 91.092,232.840 91.735,234.600 91.996 C 236.360 92.257,238.618 92.804,239.619 93.211 C 240.619 93.619,243.181 94.233,245.312 94.576 C 247.443 94.919,249.954 95.487,250.893 95.839 C 251.832 96.191,254.670 96.887,257.200 97.386 C 259.730 97.884,262.610 98.594,263.600 98.964 C 264.590 99.333,266.735 99.821,268.367 100.048 C 269.998 100.275,272.248 100.800,273.367 101.214 C 274.485 101.629,277.380 102.328,279.800 102.768 C 282.220 103.208,285.123 103.926,286.251 104.364 C 287.379 104.801,289.269 105.272,290.451 105.410 C 294.814 105.918,295.655 108.379,293.421 114.096 C 292.883 115.473,292.236 118.040,291.984 119.800 C 291.731 121.560,291.094 124.239,290.568 125.753 C 290.042 127.267,289.434 129.921,289.217 131.651 C 288.418 138.023,286.231 139.206,279.800 136.741 C 278.700 136.320,275.910 135.632,273.600 135.212 C 271.290 134.793,268.590 134.153,267.600 133.791 C 266.610 133.428,264.213 132.874,262.272 132.560 C 260.332 132.245,258.082 131.708,257.272 131.365 C 256.463 131.023,253.631 130.323,250.981 129.811 C 248.330 129.298,245.450 128.581,244.581 128.217 C 243.711 127.853,241.589 127.377,239.864 127.160 C 238.139 126.943,235.619 126.354,234.264 125.851 C 232.909 125.348,230.180 124.706,228.200 124.424 C 226.220 124.143,224.060 123.673,223.400 123.381 C 221.334 122.466,217.917 121.600,216.373 121.600 C 215.558 121.600,213.566 121.161,211.946 120.623 C 210.325 120.086,207.045 119.282,204.655 118.835 C 202.265 118.389,200.063 117.818,199.760 117.567 C 197.891 116.016,195.421 120.800,194.410 127.931 C 194.182 129.535,193.715 131.391,193.372 132.055 C 193.028 132.719,192.404 135.273,191.985 137.731 C 191.565 140.189,190.859 143.142,190.415 144.293 C 189.972 145.444,189.507 147.424,189.383 148.693 C 189.259 149.962,188.637 152.710,188.000 154.800 C 187.364 156.890,186.581 160.130,186.260 162.000 C 185.939 163.870,185.289 166.480,184.816 167.800 C 182.588 174.004,183.357 178.400,186.669 178.400 C 188.429 178.400,191.962 179.176,193.291 179.854 C 193.892 180.161,196.322 180.750,198.691 181.164 C 201.061 181.578,203.647 182.196,204.437 182.538 C 205.228 182.879,207.603 183.436,209.715 183.776 C 211.828 184.116,214.445 184.745,215.532 185.173 C 216.619 185.602,219.284 186.225,221.454 186.557 C 223.624 186.890,226.390 187.551,227.600 188.025 C 228.810 188.500,231.115 189.055,232.722 189.258 C 234.330 189.462,236.580 189.974,237.722 190.398 C 238.865 190.821,241.780 191.528,244.200 191.968 C 246.620 192.408,249.500 193.112,250.600 193.532 C 251.700 193.952,253.770 194.423,255.200 194.578 C 257.745 194.854,265.710 197.288,266.700 198.092 C 267.437 198.690,267.315 199.996,266.255 202.852 C 265.735 204.254,265.190 206.480,265.044 207.800 C 264.898 209.120,264.253 211.910,263.610 214.000 C 262.967 216.090,262.271 219.077,262.062 220.637 C 261.225 226.900,259.129 229.556,255.978 228.348 C 254.780 227.889,252.540 227.356,251.000 227.164 C 249.460 226.972,246.940 226.376,245.400 225.839 C 243.860 225.303,241.070 224.642,239.200 224.372 C 237.330 224.101,234.691 223.464,233.336 222.957 C 231.981 222.449,229.444 221.855,227.699 221.636 C 225.955 221.417,223.643 220.892,222.563 220.470 C 221.484 220.047,218.800 219.397,216.600 219.025 C 214.400 218.654,212.150 218.114,211.600 217.827 C 210.432 217.216,207.510 216.555,204.401 216.198 C 203.191 216.060,201.121 215.526,199.801 215.013 C 198.480 214.500,195.870 213.866,194.000 213.605 C 192.130 213.343,189.430 212.704,188.000 212.185 C 186.570 211.665,184.031 211.057,182.358 210.832 C 180.685 210.608,178.804 210.230,178.180 209.992 C 175.766 209.075,173.921 211.751,173.049 217.435 C 172.748 219.396,172.136 221.990,171.689 223.200 C 171.241 224.410,170.681 226.785,170.443 228.478 C 170.206 230.170,169.728 232.330,169.381 233.278 C 168.539 235.581,167.743 238.912,167.393 241.600 C 167.236 242.810,166.705 244.880,166.213 246.200 C 165.721 247.520,165.190 249.758,165.031 251.174 C 164.873 252.590,164.297 255.110,163.750 256.774 C 163.204 258.438,162.521 261.330,162.232 263.200 C 161.943 265.070,161.317 267.590,160.841 268.800 C 159.905 271.181,159.057 276.519,159.428 277.689 C 159.886 279.130,164.171 280.697,169.600 281.409 C 170.810 281.567,172.700 282.051,173.800 282.483 C 174.900 282.915,177.458 283.518,179.484 283.822 C 181.509 284.126,183.849 284.671,184.684 285.033 C 186.368 285.763,191.191 286.799,192.908 286.800 C 193.517 286.800,195.137 287.258,196.508 287.819 C 197.879 288.379,200.371 289.011,202.047 289.224 C 203.723 289.437,206.363 290.055,207.915 290.597 C 209.466 291.139,212.325 291.837,214.268 292.148 C 216.211 292.459,218.610 293.026,219.600 293.408 C 220.590 293.790,222.944 294.339,224.831 294.629 C 226.718 294.919,229.058 295.454,230.031 295.818 C 231.004 296.181,233.870 296.888,236.400 297.388 C 238.930 297.888,242.063 298.680,243.363 299.148 C 244.662 299.617,246.119 300.000,246.601 300.000 C 248.732 300.000,249.170 304.177,247.398 307.604 C 247.063 308.252,246.442 310.722,246.019 313.091 C 245.596 315.461,244.953 318.210,244.591 319.200 C 244.228 320.190,243.670 322.620,243.350 324.600 C 242.189 331.790,240.763 333.100,235.918 331.428 C 234.280 330.862,231.243 330.119,229.169 329.776 C 227.096 329.433,224.320 328.738,223.000 328.231 C 221.680 327.725,219.411 327.205,217.958 327.076 C 216.505 326.947,214.345 326.453,213.158 325.979 C 211.971 325.506,209.110 324.789,206.800 324.386 C 204.490 323.984,201.554 323.276,200.276 322.814 C 198.998 322.352,196.637 321.808,195.030 321.604 C 193.423 321.400,191.319 320.938,190.354 320.577 C 189.389 320.216,186.530 319.507,184.000 319.000 C 181.470 318.493,178.622 317.788,177.671 317.431 C 176.720 317.075,174.571 316.593,172.896 316.360 C 171.220 316.127,168.758 315.531,167.425 315.036 C 166.091 314.541,163.380 313.900,161.400 313.612 C 159.420 313.324,156.691 312.671,155.336 312.161 C 153.981 311.651,151.459 311.057,149.733 310.840 C 148.006 310.624,145.605 310.078,144.397 309.626 C 143.188 309.175,140.310 308.462,138.000 308.042 C 135.690 307.622,132.990 306.971,132.000 306.597 C 131.010 306.222,128.881 305.748,127.269 305.543 C 125.657 305.338,123.202 304.742,121.812 304.219 C 120.423 303.696,118.287 303.144,117.066 302.991 C 113.231 302.512,112.621 299.797,114.999 293.792 C 115.523 292.467,116.133 289.944,116.353 288.184 C 116.768 284.876,116.925 284.230,117.807 282.200 C 118.094 281.540,118.638 279.110,119.017 276.800 C 119.395 274.490,119.930 272.150,120.205 271.600 C 120.684 270.645,120.994 269.270,121.980 263.729 C 122.222 262.370,122.756 260.480,123.168 259.529 C 123.580 258.578,124.140 256.180,124.414 254.200 C 124.687 252.220,125.328 249.492,125.838 248.136 C 126.349 246.781,126.943 244.261,127.160 242.536 C 127.377 240.811,127.861 238.680,128.236 237.800 C 128.610 236.920,129.331 233.980,129.838 231.266 C 130.344 228.552,130.932 226.122,131.144 225.866 C 131.587 225.330,132.800 219.729,132.800 218.221 C 132.800 217.664,133.167 216.262,133.616 215.104 C 134.065 213.947,134.788 211.020,135.222 208.600 C 135.657 206.180,136.182 203.840,136.388 203.400 C 137.129 201.823,138.000 198.227,138.000 196.748 C 138.000 195.920,138.516 193.747,139.147 191.921 C 139.778 190.094,140.567 186.980,140.901 185.000 C 141.234 183.020,141.797 180.634,142.152 179.698 C 142.507 178.763,143.052 176.423,143.364 174.498 C 143.676 172.574,144.228 170.190,144.591 169.200 C 144.953 168.210,145.597 165.457,146.021 163.081 C 146.445 160.706,146.997 158.378,147.249 157.909 C 147.878 156.733,148.768 152.884,148.786 151.265 C 148.794 150.531,149.328 148.281,149.974 146.265 C 150.620 144.249,151.413 141.070,151.736 139.200 C 152.059 137.330,152.685 134.783,153.128 133.540 C 153.570 132.298,154.053 130.228,154.200 128.940 C 154.347 127.653,154.897 125.250,155.422 123.600 C 155.947 121.950,156.720 118.800,157.139 116.600 C 157.558 114.400,158.185 111.857,158.532 110.948 C 158.879 110.039,159.342 107.879,159.560 106.148 C 159.778 104.417,160.393 101.830,160.928 100.400 C 161.462 98.970,162.022 96.720,162.172 95.400 C 162.440 93.044,162.927 90.986,163.591 89.400 C 164.136 88.099,164.785 85.188,165.176 82.295 C 165.705 78.375,167.721 75.623,169.600 76.256 C 169.930 76.367,171.550 76.887,173.200 77.411 " stroke="none" fill="#63ade0" fill-rule="evenodd"></path><path id="path2" d="M168.093 76.491 C 166.666 77.179,165.573 79.354,165.176 82.295 C 164.785 85.188,164.136 88.099,163.591 89.400 C 162.927 90.986,162.440 93.044,162.172 95.400 C 162.022 96.720,161.462 98.970,160.928 100.400 C 160.393 101.830,159.778 104.417,159.560 106.148 C 159.342 107.879,158.879 110.039,158.532 110.948 C 158.185 111.857,157.558 114.400,157.139 116.600 C 156.720 118.800,155.947 121.950,155.422 123.600 C 154.897 125.250,154.347 127.653,154.200 128.940 C 154.053 130.228,153.570 132.298,153.128 133.540 C 152.685 134.783,152.059 137.330,151.736 139.200 C 151.413 141.070,150.620 144.249,149.974 146.265 C 149.328 148.281,148.794 150.531,148.786 151.265 C 148.768 152.884,147.878 156.733,147.249 157.909 C 146.997 158.378,146.445 160.706,146.021 163.081 C 145.597 165.457,144.953 168.210,144.591 169.200 C 144.228 170.190,143.676 172.574,143.364 174.498 C 143.052 176.423,142.507 178.763,142.152 179.698 C 141.797 180.634,141.234 183.020,140.901 185.000 C 140.567 186.980,139.778 190.094,139.147 191.921 C 138.516 193.747,138.000 195.920,138.000 196.748 C 138.000 198.227,137.129 201.823,136.388 203.400 C 136.182 203.840,135.657 206.180,135.222 208.600 C 134.788 211.020,134.065 213.947,133.616 215.104 C 133.167 216.262,132.800 217.664,132.800 218.221 C 132.800 219.729,131.587 225.330,131.144 225.866 C 130.932 226.122,130.344 228.552,129.838 231.266 C 129.331 233.980,128.610 236.920,128.236 237.800 C 127.861 238.680,127.377 240.811,127.160 242.536 C 126.943 244.261,126.349 246.781,125.838 248.136 C 125.328 249.492,124.687 252.220,124.414 254.200 C 124.140 256.180,123.580 258.578,123.168 259.529 C 122.756 260.480,122.222 262.370,121.980 263.729 C 120.994 269.270,120.684 270.645,120.205 271.600 C 119.930 272.150,119.395 274.490,119.017 276.800 C 118.638 279.110,118.094 281.540,117.807 282.200 C 116.925 284.230,116.768 284.876,116.353 288.184 C 116.133 289.944,115.523 292.467,114.999 293.792 C 112.621 299.797,113.231 302.512,117.066 302.991 C 118.287 303.144,120.423 303.696,121.812 304.219 C 123.202 304.742,125.657 305.338,127.269 305.543 C 128.881 305.748,131.010 306.222,132.000 306.597 C 132.990 306.971,135.690 307.622,138.000 308.042 C 140.310 308.462,143.188 309.175,144.397 309.626 C 145.605 310.078,148.006 310.624,149.733 310.840 C 151.459 311.057,153.981 311.651,155.336 312.161 C 156.691 312.671,159.420 313.324,161.400 313.612 C 163.380 313.900,166.091 314.541,167.425 315.036 C 168.758 315.531,171.220 316.127,172.896 316.360 C 174.571 316.593,176.720 317.075,177.671 317.431 C 178.622 317.788,181.470 318.493,184.000 319.000 C 186.530 319.507,189.389 320.216,190.354 320.577 C 191.319 320.938,193.423 321.400,195.030 321.604 C 196.637 321.808,198.998 322.352,200.276 322.814 C 201.554 323.276,204.490 323.984,206.800 324.386 C 209.110 324.789,211.971 325.506,213.158 325.979 C 214.345 326.453,216.505 326.947,217.958 327.076 C 219.411 327.205,221.680 327.725,223.000 328.231 C 224.320 328.738,227.096 329.433,229.169 329.776 C 231.243 330.119,234.280 330.862,235.918 331.428 C 240.763 333.100,242.189 331.790,243.350 324.600 C 243.670 322.620,244.228 320.190,244.591 319.200 C 244.953 318.210,245.596 315.461,246.019 313.091 C 246.442 310.722,247.063 308.252,247.398 307.604 C 249.170 304.177,248.732 300.000,246.601 300.000 C 246.119 300.000,244.662 299.617,243.363 299.148 C 242.063 298.680,238.930 297.888,236.400 297.388 C 233.870 296.888,231.004 296.181,230.031 295.818 C 229.058 295.454,226.718 294.919,224.831 294.629 C 222.944 294.339,220.590 293.790,219.600 293.408 C 218.610 293.026,216.211 292.459,214.268 292.148 C 212.325 291.837,209.466 291.139,207.915 290.597 C 206.363 290.055,203.723 289.437,202.047 289.224 C 200.371 289.011,197.879 288.379,196.508 287.819 C 195.137 287.258,193.517 286.800,192.908 286.800 C 191.191 286.799,186.368 285.763,184.684 285.033 C 183.849 284.671,181.509 284.126,179.484 283.822 C 177.458 283.518,174.900 282.915,173.800 282.483 C 172.700 282.051,170.810 281.567,169.600 281.409 C 164.171 280.697,159.886 279.130,159.428 277.689 C 159.057 276.519,159.905 271.181,160.841 268.800 C 161.317 267.590,161.943 265.070,162.232 263.200 C 162.521 261.330,163.204 258.438,163.750 256.774 C 164.297 255.110,164.873 252.590,165.031 251.174 C 165.190 249.758,165.721 247.520,166.213 246.200 C 166.705 244.880,167.236 242.810,167.393 241.600 C 167.743 238.912,168.539 235.581,169.381 233.278 C 169.728 232.330,170.206 230.170,170.443 228.478 C 170.681 226.785,171.241 224.410,171.689 223.200 C 172.136 221.990,172.748 219.396,173.049 217.435 C 173.921 211.751,175.766 209.075,178.180 209.992 C 178.804 210.230,180.685 210.608,182.358 210.832 C 184.031 211.057,186.570 211.665,188.000 212.185 C 189.430 212.704,192.130 213.343,194.000 213.605 C 195.870 213.866,198.480 214.500,199.801 215.013 C 201.121 215.526,203.191 216.060,204.401 216.198 C 207.510 216.555,210.432 217.216,211.600 217.827 C 212.150 218.114,214.400 218.654,216.600 219.025 C 218.800 219.397,221.484 220.047,222.563 220.470 C 223.643 220.892,225.955 221.417,227.699 221.636 C 229.444 221.855,231.981 222.449,233.336 222.957 C 234.691 223.464,237.330 224.101,239.200 224.372 C 241.070 224.642,243.860 225.303,245.400 225.839 C 246.940 226.376,249.460 226.972,251.000 227.164 C 252.540 227.356,254.780 227.889,255.978 228.348 C 259.129 229.556,261.225 226.900,262.062 220.637 C 262.271 219.077,262.967 216.090,263.610 214.000 C 264.253 211.910,264.898 209.120,265.044 207.800 C 265.190 206.480,265.735 204.254,266.255 202.852 C 267.315 199.996,267.437 198.690,266.700 198.092 C 265.710 197.288,257.745 194.854,255.200 194.578 C 253.770 194.423,251.700 193.952,250.600 193.532 C 249.500 193.112,246.620 192.408,244.200 191.968 C 241.780 191.528,238.865 190.821,237.722 190.398 C 236.580 189.974,234.330 189.462,232.722 189.258 C 231.115 189.055,228.810 188.500,227.600 188.025 C 226.390 187.551,223.624 186.890,221.454 186.557 C 219.284 186.225,216.619 185.602,215.532 185.173 C 214.445 184.745,211.828 184.116,209.715 183.776 C 207.603 183.436,205.228 182.879,204.437 182.538 C 203.647 182.196,201.061 181.578,198.691 181.164 C 196.322 180.750,193.892 180.161,193.291 179.854 C 191.962 179.176,188.429 178.400,186.669 178.400 C 183.357 178.400,182.588 174.004,184.816 167.800 C 185.289 166.480,185.939 163.870,186.260 162.000 C 186.581 160.130,187.364 156.890,188.000 154.800 C 188.637 152.710,189.259 149.962,189.383 148.693 C 189.507 147.424,189.972 145.444,190.415 144.293 C 190.859 143.142,191.565 140.189,191.985 137.731 C 192.404 135.273,193.028 132.719,193.372 132.055 C 193.715 131.391,194.182 129.535,194.410 127.931 C 195.421 120.800,197.891 116.016,199.760 117.567 C 200.063 117.818,202.265 118.389,204.655 118.835 C 207.045 119.282,210.325 120.086,211.946 120.623 C 213.566 121.161,215.558 121.600,216.373 121.600 C 217.917 121.600,221.334 122.466,223.400 123.381 C 224.060 123.673,226.220 124.143,228.200 124.424 C 230.180 124.706,232.909 125.348,234.264 125.851 C 235.619 126.354,238.139 126.943,239.864 127.160 C 241.589 127.377,243.711 127.853,244.581 128.217 C 245.450 128.581,248.330 129.298,250.981 129.811 C 253.631 130.323,256.463 131.023,257.272 131.365 C 258.082 131.708,260.332 132.245,262.272 132.560 C 264.213 132.874,266.610 133.428,267.600 133.791 C 268.590 134.153,271.290 134.793,273.600 135.212 C 275.910 135.632,278.700 136.320,279.800 136.741 C 286.231 139.206,288.418 138.023,289.217 131.651 C 289.434 129.921,290.042 127.267,290.568 125.753 C 291.094 124.239,291.731 121.560,291.984 119.800 C 292.236 118.040,292.883 115.473,293.421 114.096 C 295.655 108.379,294.814 105.918,290.451 105.410 C 289.269 105.272,287.379 104.801,286.251 104.364 C 285.123 103.926,282.220 103.208,279.800 102.768 C 277.380 102.328,274.485 101.629,273.367 101.214 C 272.248 100.800,269.998 100.275,268.367 100.048 C 266.735 99.821,264.590 99.333,263.600 98.964 C 262.610 98.594,259.730 97.884,257.200 97.386 C 254.670 96.887,251.832 96.191,250.893 95.839 C 249.954 95.487,247.443 94.919,245.312 94.576 C 243.181 94.233,240.619 93.619,239.619 93.211 C 238.618 92.804,236.360 92.257,234.600 91.996 C 232.840 91.735,230.161 91.092,228.647 90.567 C 227.133 90.041,224.523 89.435,222.847 89.219 C 221.171 89.004,218.810 88.440,217.600 87.967 C 216.390 87.494,214.050 86.932,212.400 86.718 C 210.750 86.504,207.870 85.822,206.000 85.203 C 204.130 84.583,201.520 83.955,200.200 83.807 C 197.615 83.516,195.702 83.038,193.800 82.207 C 193.140 81.918,191.610 81.556,190.400 81.401 C 187.346 81.011,183.648 80.137,183.077 79.670 C 182.815 79.455,181.160 79.073,179.400 78.822 C 176.747 78.443,173.830 77.679,169.600 76.256 C 169.270 76.145,168.592 76.251,168.093 76.491 M173.412 78.797 C 175.385 79.041,177.810 79.519,178.800 79.858 C 182.951 81.281,183.953 81.534,187.000 81.931 C 188.760 82.160,191.010 82.707,192.000 83.147 C 192.990 83.586,195.420 84.163,197.400 84.429 C 199.380 84.696,201.797 85.267,202.771 85.699 C 203.745 86.131,206.355 86.748,208.571 87.070 C 210.787 87.392,213.244 87.984,214.032 88.386 C 214.820 88.788,217.430 89.426,219.832 89.805 C 222.234 90.184,224.939 90.836,225.841 91.254 C 226.744 91.672,229.084 92.207,231.041 92.442 C 232.999 92.677,235.378 93.209,236.328 93.625 C 238.110 94.403,243.678 95.598,245.544 95.602 C 246.125 95.604,247.054 95.842,247.609 96.132 C 249.567 97.153,251.436 97.648,254.800 98.036 C 256.670 98.252,258.844 98.763,259.632 99.172 C 260.420 99.582,263.030 100.226,265.432 100.605 C 267.834 100.984,270.578 101.655,271.529 102.096 C 272.480 102.538,274.820 103.068,276.729 103.274 C 278.813 103.499,281.032 104.027,282.282 104.594 C 283.480 105.138,286.009 105.754,288.238 106.046 C 293.149 106.689,294.988 108.486,293.069 110.769 C 292.325 111.654,291.708 114.047,291.231 117.898 C 291.007 119.711,290.515 121.781,290.138 122.498 C 289.761 123.214,289.137 125.755,288.752 128.144 C 287.499 135.921,285.890 137.834,282.129 136.017 C 281.237 135.586,278.684 134.961,276.455 134.627 C 274.225 134.294,271.906 133.773,271.301 133.469 C 269.872 132.752,267.203 132.126,264.200 131.803 C 262.880 131.661,260.801 131.114,259.580 130.586 C 258.317 130.040,255.859 129.456,253.877 129.231 C 251.962 129.013,249.547 128.460,248.510 128.001 C 247.472 127.542,244.818 126.896,242.612 126.564 C 240.405 126.233,237.857 125.609,236.949 125.177 C 236.041 124.746,233.881 124.216,232.149 124.000 C 227.912 123.471,226.845 123.225,225.200 122.400 C 224.430 122.014,221.849 121.415,219.464 121.069 C 217.080 120.722,214.920 120.276,214.664 120.077 C 213.792 119.398,211.516 118.812,208.107 118.388 C 206.233 118.156,204.047 117.634,203.250 117.230 C 197.719 114.428,195.131 116.265,194.123 123.710 C 193.788 126.180,193.295 128.470,193.026 128.800 C 192.320 129.667,191.698 132.128,191.232 135.892 C 191.008 137.703,190.480 139.863,190.060 140.692 C 189.639 141.521,189.174 143.190,189.025 144.400 C 188.603 147.846,187.948 150.957,187.540 151.461 C 186.945 152.195,186.430 154.342,185.981 157.955 C 185.752 159.800,185.145 162.320,184.634 163.555 C 184.122 164.790,183.474 167.600,183.193 169.800 C 182.912 172.000,182.542 173.893,182.370 174.006 C 182.199 174.119,182.000 174.916,181.929 175.778 C 181.765 177.772,183.302 178.969,186.472 179.314 C 187.642 179.442,189.371 179.926,190.314 180.389 C 191.270 180.860,193.570 181.418,195.514 181.651 C 197.431 181.881,199.810 182.424,200.800 182.858 C 201.790 183.292,204.400 183.928,206.600 184.273 C 208.800 184.617,211.328 185.231,212.219 185.637 C 213.109 186.043,215.703 186.655,217.984 186.998 C 220.265 187.340,222.917 187.968,223.878 188.393 C 224.839 188.819,227.555 189.461,229.913 189.821 C 232.271 190.182,234.867 190.827,235.683 191.254 C 236.499 191.682,238.659 192.203,240.483 192.412 C 243.975 192.812,245.293 193.130,247.627 194.135 C 248.411 194.473,250.661 194.966,252.627 195.231 C 254.592 195.497,256.985 196.061,257.944 196.487 C 258.904 196.912,260.864 197.506,262.301 197.807 C 265.708 198.520,265.646 198.395,264.775 202.800 C 264.362 204.890,264.019 207.080,264.012 207.667 C 264.005 208.254,263.623 209.604,263.163 210.667 C 262.702 211.730,262.073 214.310,261.764 216.400 C 261.455 218.490,260.854 221.010,260.428 222.000 C 260.002 222.990,259.559 224.250,259.444 224.800 C 258.940 227.210,258.545 227.355,254.403 226.643 C 252.344 226.289,250.263 226.000,249.778 226.000 C 249.294 226.000,248.682 225.740,248.418 225.422 C 247.930 224.833,246.108 224.400,240.880 223.627 C 239.274 223.390,237.294 222.857,236.480 222.444 C 235.666 222.031,233.290 221.467,231.200 221.192 C 229.110 220.916,226.680 220.382,225.800 220.004 C 223.108 218.849,222.708 218.750,219.340 218.398 C 217.516 218.208,215.400 217.710,214.533 217.268 C 213.682 216.834,211.009 216.176,208.593 215.806 C 206.177 215.437,203.457 214.784,202.549 214.355 C 201.641 213.927,199.408 213.406,197.587 213.198 C 194.244 212.817,191.786 212.201,190.939 211.531 C 190.685 211.331,188.345 210.807,185.739 210.368 C 183.133 209.928,180.460 209.326,179.800 209.029 C 175.462 207.077,173.201 208.639,172.603 214.000 C 172.444 215.430,171.800 218.157,171.172 220.060 C 170.544 221.963,169.914 224.753,169.772 226.260 C 169.629 227.780,169.078 229.978,168.535 231.197 C 167.996 232.405,167.387 234.745,167.181 236.397 C 166.659 240.587,166.435 241.572,165.593 243.400 C 165.188 244.280,164.591 246.819,164.268 249.042 C 163.945 251.264,163.381 253.663,163.015 254.371 C 162.648 255.080,162.080 257.491,161.751 259.730 C 161.422 261.968,160.816 264.520,160.404 265.400 C 159.589 267.137,158.800 270.934,158.800 273.113 C 158.800 273.864,158.517 275.075,158.171 275.804 C 156.817 278.659,159.393 281.029,164.485 281.612 C 167.975 282.012,169.293 282.330,171.627 283.335 C 172.411 283.673,174.661 284.166,176.627 284.431 C 178.592 284.697,180.992 285.265,181.960 285.694 C 182.928 286.123,185.529 286.728,187.740 287.039 C 189.951 287.349,192.399 287.934,193.180 288.339 C 193.961 288.744,196.580 289.388,199.000 289.769 C 201.420 290.151,204.177 290.816,205.127 291.246 C 206.076 291.677,208.326 292.209,210.127 292.429 C 213.439 292.833,215.851 293.430,216.622 294.037 C 217.068 294.387,223.509 295.598,224.952 295.602 C 225.419 295.604,226.254 295.842,226.809 296.132 C 228.759 297.149,230.630 297.648,233.936 298.030 C 235.771 298.243,237.841 298.713,238.536 299.074 C 239.551 299.603,246.063 301.179,247.300 301.196 C 247.832 301.203,247.620 302.653,246.823 304.456 C 246.395 305.422,245.770 308.055,245.433 310.306 C 245.097 312.557,244.573 314.894,244.269 315.499 C 243.529 316.975,242.910 319.643,242.575 322.800 C 242.391 324.539,241.841 326.327,240.913 328.200 C 239.267 331.522,239.352 331.418,238.710 330.915 C 237.758 330.170,235.409 329.557,232.000 329.164 C 230.130 328.948,227.948 328.433,227.150 328.019 C 226.353 327.604,223.743 326.966,221.350 326.600 C 218.958 326.234,216.261 325.586,215.359 325.160 C 214.456 324.734,212.116 324.194,210.159 323.959 C 208.201 323.725,205.610 323.110,204.400 322.593 C 203.190 322.075,200.580 321.439,198.600 321.178 C 196.620 320.917,193.867 320.267,192.482 319.732 C 191.097 319.197,188.427 318.585,186.550 318.372 C 184.673 318.159,182.476 317.648,181.669 317.237 C 180.861 316.826,178.220 316.179,175.800 315.798 C 173.380 315.418,170.622 314.745,169.671 314.304 C 168.720 313.862,166.380 313.330,164.471 313.122 C 162.562 312.913,160.190 312.375,159.200 311.925 C 158.210 311.475,155.414 310.775,152.986 310.369 C 150.558 309.963,147.755 309.270,146.756 308.828 C 145.757 308.386,143.378 307.847,141.468 307.630 C 139.558 307.413,137.208 306.887,136.246 306.462 C 135.284 306.036,132.630 305.392,130.349 305.031 C 128.067 304.670,125.660 304.124,125.000 303.817 C 123.161 302.964,121.217 302.454,118.800 302.191 C 114.776 301.753,114.800 301.766,114.800 299.976 C 114.800 299.092,115.142 297.698,115.560 296.879 C 115.977 296.060,116.542 293.593,116.816 291.395 C 117.089 289.198,117.558 287.000,117.859 286.510 C 118.627 285.259,119.598 281.335,119.613 279.416 C 119.620 278.527,119.999 276.810,120.455 275.600 C 120.911 274.390,121.675 271.218,122.151 268.550 C 122.628 265.883,123.216 263.453,123.458 263.150 C 123.969 262.510,124.601 259.794,125.189 255.707 C 125.418 254.116,125.949 252.136,126.369 251.307 C 126.789 250.478,127.248 248.810,127.388 247.600 C 127.749 244.498,128.433 241.072,128.785 240.600 C 129.413 239.759,130.004 237.387,130.415 234.057 C 130.652 232.143,131.253 229.707,131.763 228.600 C 132.323 227.383,132.881 224.992,133.187 222.495 C 133.464 220.238,133.848 218.294,134.040 218.175 C 134.595 217.833,135.538 214.092,135.975 210.504 C 136.196 208.691,136.658 206.779,137.001 206.255 C 137.344 205.731,137.979 203.202,138.411 200.634 C 138.843 198.067,139.447 195.479,139.753 194.883 C 140.347 193.726,140.985 190.751,141.392 187.242 C 141.530 186.055,142.011 184.363,142.460 183.483 C 142.925 182.570,143.528 180.058,143.860 177.641 C 144.181 175.308,144.797 172.662,145.228 171.761 C 145.659 170.860,146.205 168.610,146.440 166.761 C 146.676 164.912,147.231 162.500,147.674 161.400 C 148.117 160.300,148.828 157.334,149.253 154.810 C 149.678 152.285,150.262 149.855,150.550 149.410 C 151.242 148.339,151.579 146.894,152.004 143.168 C 152.197 141.470,152.790 139.028,153.321 137.741 C 153.851 136.453,154.497 133.831,154.756 131.912 C 155.015 129.994,155.669 127.248,156.211 125.810 C 156.752 124.372,157.309 121.891,157.449 120.298 C 157.589 118.703,158.102 116.501,158.589 115.400 C 159.076 114.300,159.774 111.437,160.139 109.039 C 160.505 106.640,160.997 104.445,161.232 104.161 C 161.846 103.422,162.696 99.979,163.026 96.899 C 163.181 95.444,163.710 93.341,164.201 92.227 C 164.691 91.112,165.223 88.940,165.383 87.400 C 165.882 82.576,168.236 77.101,169.412 78.027 C 169.638 78.206,171.438 78.552,173.412 78.797 " stroke="none" fill="#99c6e8" fill-rule="evenodd"></path><path id="path3" d="M88.943 2.196 C 89.085 2.567,88.961 2.683,88.580 2.537 C 88.165 2.378,88.000 2.611,88.000 3.357 L 88.000 4.400 83.969 4.400 C 80.024 4.400,79.913 4.425,78.738 5.600 C 77.813 6.525,77.179 6.800,75.969 6.800 C 74.744 6.800,74.399 6.953,74.394 7.500 C 74.389 8.097,74.332 8.112,74.005 7.600 C 73.476 6.770,72.189 7.607,72.232 8.752 C 72.259 9.474,72.036 9.600,70.732 9.600 C 69.248 9.600,69.200 9.644,69.200 11.000 C 69.200 12.396,69.194 12.400,67.374 12.400 C 65.041 12.400,64.000 12.960,64.000 14.214 C 64.000 15.070,63.819 15.200,62.632 15.200 C 61.437 15.200,61.230 15.352,61.000 16.400 C 60.855 17.061,60.476 17.600,60.156 17.600 C 59.836 17.600,59.472 17.869,59.346 18.198 C 59.219 18.526,58.929 18.680,58.700 18.538 C 58.436 18.375,58.357 18.664,58.485 19.333 C 58.663 20.264,58.534 20.414,57.371 20.632 C 55.964 20.896,55.241 21.926,56.086 22.462 C 56.486 22.716,56.489 22.789,56.100 22.794 C 55.784 22.798,55.600 23.390,55.600 24.400 C 55.600 25.962,55.567 26.000,54.200 26.000 C 52.922 26.000,52.800 26.101,52.800 27.161 C 52.800 28.091,52.562 28.405,51.600 28.740 C 50.940 28.970,50.400 29.333,50.400 29.546 C 50.400 29.760,50.279 30.249,50.132 30.633 C 49.930 31.159,50.004 31.251,50.432 31.007 C 50.892 30.744,50.905 30.785,50.500 31.221 C 50.225 31.518,50.000 32.264,50.000 32.880 C 50.000 33.584,49.788 34.000,49.429 34.000 C 48.024 34.000,47.600 35.162,47.600 39.016 C 47.600 42.036,47.492 42.734,47.052 42.564 C 46.340 42.292,45.092 43.540,45.364 44.252 C 45.480 44.553,45.393 44.800,45.170 44.800 C 44.947 44.800,44.794 45.025,44.830 45.300 C 44.866 45.575,44.873 48.716,44.847 52.281 L 44.800 58.762 43.567 58.606 C 42.620 58.486,42.385 58.584,42.554 59.025 C 42.676 59.341,42.613 59.600,42.415 59.600 C 42.218 59.600,42.041 62.345,42.023 65.700 C 42.004 69.356,41.831 71.854,41.593 71.934 C 41.374 72.008,41.295 72.231,41.418 72.430 C 41.541 72.628,41.363 72.684,41.023 72.554 C 40.405 72.316,39.492 73.857,39.871 74.500 C 39.968 74.665,39.840 74.800,39.588 74.800 C 39.299 74.800,39.161 75.434,39.218 76.500 C 39.267 77.435,39.283 80.366,39.254 83.012 L 39.200 87.825 38.000 88.278 L 36.800 88.731 36.800 96.565 C 36.800 103.241,36.711 104.407,36.200 104.450 C 35.870 104.478,35.420 104.545,35.200 104.600 C 34.980 104.655,34.575 104.725,34.300 104.756 C 33.952 104.795,33.982 104.930,34.400 105.200 C 34.827 105.476,34.851 105.590,34.482 105.594 C 34.198 105.597,33.994 105.825,34.030 106.100 C 34.557 110.161,33.921 118.050,33.039 118.385 C 31.982 118.787,31.092 120.886,31.212 122.698 C 31.447 126.264,31.146 134.934,30.805 134.400 C 30.293 133.596,29.136 134.305,28.779 135.642 C 28.635 136.181,28.482 139.587,28.439 143.211 C 28.394 146.972,28.196 149.858,27.978 149.934 C 27.767 150.008,27.721 150.278,27.874 150.534 C 28.077 150.873,27.992 150.870,27.563 150.523 C 26.862 149.956,26.188 150.323,26.137 151.300 C 26.116 151.685,26.078 154.657,26.050 157.905 C 26.002 163.607,25.969 163.824,25.107 164.205 C 23.473 164.928,23.212 166.175,23.206 173.300 C 23.200 179.845,23.180 180.000,22.357 180.000 C 21.740 180.000,21.582 180.176,21.766 180.657 C 21.969 181.184,21.908 181.221,21.456 180.847 C 20.683 180.205,20.531 181.477,20.435 189.379 C 20.357 195.774,20.157 196.669,18.906 196.211 C 18.179 195.944,17.683 197.157,17.685 199.200 C 17.693 207.118,17.482 210.730,17.021 210.553 C 15.732 210.058,15.402 211.623,15.268 218.860 L 15.135 226.000 14.182 226.000 C 12.668 226.000,12.464 226.993,12.419 234.600 C 12.378 241.734,12.197 242.682,10.964 242.233 C 10.132 241.930,9.315 242.744,10.000 243.194 C 10.340 243.417,10.399 243.590,10.136 243.594 C 9.807 243.598,9.658 245.374,9.622 249.700 C 9.593 253.240,9.409 255.856,9.183 255.934 C 8.970 256.008,8.884 256.213,8.993 256.389 C 9.102 256.565,8.878 256.955,8.496 257.255 C 7.853 257.758,7.846 257.741,8.400 257.035 C 8.933 256.355,8.933 256.293,8.400 256.479 C 8.041 256.604,7.830 257.111,7.875 257.744 C 7.922 258.402,7.747 258.800,7.409 258.800 C 7.049 258.800,6.870 259.302,6.875 260.300 C 6.923 270.247,6.803 272.000,6.080 272.000 C 4.539 272.000,4.400 272.700,4.400 280.480 C 4.400 286.898,4.312 288.000,3.800 288.000 C 3.470 288.000,3.197 288.225,3.194 288.500 C 3.190 288.834,3.057 288.801,2.794 288.400 C 1.862 286.981,1.627 289.314,1.627 300.000 C 1.627 311.679,1.650 311.851,3.200 311.832 C 4.198 311.821,4.200 311.829,4.313 316.093 C 4.423 320.229,4.465 320.403,5.613 321.552 C 6.284 322.222,6.800 323.165,6.800 323.719 C 6.800 325.953,7.333 327.313,8.458 327.953 C 9.083 328.309,9.596 328.904,9.597 329.276 C 9.599 329.648,9.783 330.066,10.007 330.204 C 10.230 330.342,10.324 330.599,10.216 330.775 C 10.107 330.951,10.329 331.093,10.709 331.092 C 12.292 331.088,12.400 331.210,12.400 333.000 C 12.400 334.879,13.384 336.400,14.600 336.400 C 14.930 336.400,15.223 336.760,15.250 337.200 C 15.278 337.640,15.322 338.225,15.350 338.500 C 15.378 338.775,15.895 339.057,16.500 339.127 C 17.152 339.202,17.600 339.496,17.600 339.850 C 17.600 340.179,17.763 340.346,17.963 340.223 C 18.162 340.100,18.233 340.354,18.119 340.788 C 17.947 341.447,18.169 341.618,19.469 341.825 C 20.830 342.043,21.024 342.208,21.013 343.137 C 21.000 344.163,21.087 344.204,23.500 344.319 L 26.000 344.438 26.000 345.819 C 26.000 347.085,26.099 347.200,27.192 347.200 C 28.125 347.200,28.438 347.414,28.632 348.184 C 28.982 349.578,29.948 350.327,30.424 349.574 C 30.677 349.176,30.790 349.153,30.794 349.500 C 30.798 349.816,31.390 350.000,32.400 350.000 C 33.556 350.000,34.000 350.167,34.000 350.600 C 34.000 350.930,34.180 351.200,34.400 351.200 C 34.620 351.200,34.755 351.402,34.700 351.650 C 34.645 351.897,34.825 352.182,35.100 352.283 C 35.375 352.384,35.603 352.227,35.606 351.933 C 35.611 351.529,35.703 351.543,35.986 351.991 C 36.244 352.400,37.269 352.628,39.302 352.731 C 41.823 352.858,42.299 353.000,42.622 353.718 C 42.830 354.179,43.600 354.797,44.333 355.092 C 45.394 355.520,45.602 355.524,45.356 355.114 C 45.111 354.708,45.182 354.710,45.694 355.124 C 46.049 355.413,46.579 355.616,46.870 355.577 C 47.162 355.537,49.863 355.527,52.873 355.553 L 58.347 355.600 58.473 356.700 L 58.600 357.800 65.340 357.910 C 71.713 358.014,72.092 358.064,72.291 358.826 C 72.716 360.453,74.314 360.800,81.380 360.800 C 87.194 360.800,88.000 360.878,88.000 361.443 C 88.000 361.874,88.216 362.003,88.657 361.834 C 89.204 361.624,89.229 361.683,88.812 362.186 C 88.228 362.889,89.142 363.461,90.200 363.055 C 90.530 362.929,90.800 362.975,90.800 363.158 C 90.800 363.341,93.810 363.524,97.488 363.564 C 104.358 363.639,104.877 363.764,104.585 365.277 C 104.506 365.686,104.600 365.924,104.793 365.804 C 104.987 365.685,105.248 365.755,105.375 365.960 C 105.502 366.165,106.279 366.329,107.103 366.325 C 116.893 366.279,118.303 366.386,118.515 367.195 C 118.860 368.514,120.527 368.800,127.926 368.806 C 132.710 368.810,134.806 368.940,134.400 369.206 C 133.908 369.529,133.897 369.662,134.334 369.945 C 134.628 370.134,134.853 370.404,134.834 370.545 C 134.815 370.685,134.915 370.785,135.055 370.766 C 135.196 370.747,135.466 370.972,135.655 371.266 C 135.938 371.703,136.071 371.692,136.394 371.200 C 136.675 370.772,136.790 370.748,136.794 371.118 C 136.797 371.402,137.025 371.606,137.300 371.570 C 140.322 371.178,150.000 371.676,150.000 372.224 C 150.000 372.567,150.163 372.746,150.363 372.623 C 150.562 372.500,150.623 372.790,150.498 373.267 C 150.318 373.956,150.409 374.082,150.936 373.880 C 151.301 373.740,151.600 373.813,151.600 374.043 C 151.600 374.273,152.275 374.430,153.100 374.392 C 159.464 374.098,164.352 374.418,164.582 375.143 C 164.809 375.857,167.442 377.330,168.223 377.178 C 170.472 376.742,180.000 377.280,180.000 377.843 C 180.000 378.274,180.216 378.403,180.657 378.234 C 181.231 378.013,181.243 378.068,180.757 378.668 C 180.449 379.047,180.411 379.227,180.672 379.070 C 180.932 378.914,181.258 378.970,181.396 379.193 C 181.761 379.784,182.500 379.694,182.165 379.100 C 181.939 378.700,181.990 378.700,182.421 379.100 C 182.808 379.459,184.855 379.600,189.667 379.600 C 195.301 379.600,196.340 379.691,196.157 380.169 C 195.819 381.048,196.792 382.656,197.237 381.954 C 197.490 381.555,197.589 381.540,197.594 381.900 C 197.599 382.278,199.101 382.400,203.757 382.400 C 208.972 382.400,209.951 382.496,210.154 383.025 C 210.286 383.369,210.563 383.546,210.770 383.419 C 210.976 383.291,211.275 383.398,211.434 383.655 C 211.615 383.948,211.550 384.016,211.262 383.838 C 211.008 383.681,210.800 383.724,210.800 383.934 C 210.800 384.335,211.745 384.804,212.533 384.794 C 212.801 384.790,212.744 384.622,212.400 384.400 C 211.980 384.129,211.954 384.010,212.313 384.006 C 212.594 384.003,212.933 384.282,213.065 384.626 C 213.221 385.032,213.744 385.229,214.553 385.186 C 220.576 384.864,226.000 385.227,226.000 385.951 C 226.000 387.695,227.330 387.943,236.868 387.980 L 241.936 388.000 242.193 389.167 L 242.449 390.335 249.125 390.379 C 253.067 390.406,255.855 390.584,255.934 390.814 C 256.008 391.029,256.209 391.118,256.381 391.012 C 256.553 390.906,257.032 391.220,257.447 391.709 L 258.200 392.600 257.300 391.838 C 256.805 391.419,256.400 391.279,256.400 391.528 C 256.400 392.714,258.618 393.129,265.212 393.178 C 269.074 393.207,271.856 393.388,271.934 393.616 C 272.008 393.830,272.278 393.879,272.534 393.726 C 272.790 393.572,272.749 393.755,272.443 394.133 C 271.643 395.119,271.915 395.309,274.800 395.781 C 275.350 395.871,278.545 395.957,281.900 395.972 L 288.000 396.000 288.000 396.976 C 288.000 397.966,288.790 398.887,288.812 397.924 C 288.820 397.596,288.975 397.659,289.227 398.091 C 289.592 398.717,290.563 398.780,299.588 398.764 C 310.885 398.743,311.744 398.625,311.927 397.074 C 312.051 396.019,314.899 395.572,318.900 395.979 C 319.285 396.018,319.600 395.848,319.600 395.602 C 319.600 395.355,319.780 395.264,320.000 395.400 C 320.220 395.536,320.400 395.457,320.400 395.224 C 320.400 394.178,322.031 393.200,323.774 393.200 C 326.151 393.200,327.536 392.619,327.987 391.434 C 328.261 390.714,328.710 390.420,329.680 390.327 C 330.730 390.226,331.002 390.020,331.012 389.321 C 331.029 388.090,331.715 387.761,334.524 387.633 C 334.922 387.615,335.137 387.422,335.003 387.205 C 334.867 386.985,335.013 386.907,335.330 387.028 C 335.699 387.170,335.987 386.906,336.143 386.284 C 336.307 385.633,336.809 385.199,337.693 384.947 C 338.702 384.660,339.029 384.326,339.127 383.487 C 339.199 382.869,339.500 382.400,339.827 382.400 C 340.142 382.400,340.403 382.175,340.406 381.900 C 340.411 381.540,340.510 381.555,340.763 381.954 C 341.199 382.642,342.184 381.057,341.855 380.198 C 341.741 379.901,341.941 379.420,342.301 379.129 C 342.774 378.745,342.871 378.737,342.653 379.100 C 342.245 379.780,343.374 379.754,343.942 379.070 C 344.263 378.683,344.250 378.399,343.890 378.012 C 343.502 377.593,343.504 377.542,343.900 377.765 C 344.268 377.973,344.400 377.571,344.400 376.249 C 344.400 374.513,344.445 374.446,345.700 374.325 C 346.824 374.217,347.016 374.034,347.120 372.977 C 347.216 371.990,347.486 371.682,348.520 371.377 C 349.764 371.011,349.803 370.930,349.919 368.500 C 349.985 367.125,350.220 366.000,350.443 366.000 C 350.665 366.000,350.712 365.775,350.547 365.500 C 350.310 365.107,350.379 365.108,350.870 365.505 C 351.380 365.918,351.590 365.894,352.021 365.374 C 352.445 364.863,352.449 364.678,352.041 364.425 C 351.650 364.184,351.680 364.055,352.166 363.868 C 352.666 363.677,352.800 362.996,352.800 360.659 C 352.800 358.053,352.895 357.669,353.582 357.489 C 355.009 357.116,355.467 355.011,355.557 348.400 C 355.605 344.912,355.809 342.141,356.024 342.066 C 356.233 341.992,356.303 341.767,356.179 341.566 C 356.055 341.365,356.143 341.200,356.376 341.200 C 356.609 341.200,356.800 341.402,356.800 341.649 C 356.800 341.953,357.001 341.932,357.420 341.583 C 357.761 341.300,358.011 340.693,357.976 340.234 C 357.559 334.829,358.050 328.167,358.893 327.795 C 360.062 327.278,360.959 325.549,360.281 325.118 C 359.912 324.884,359.917 324.811,360.300 324.806 C 360.679 324.801,360.800 323.255,360.800 318.427 L 360.800 312.053 361.886 311.927 C 363.333 311.758,363.532 310.666,363.579 302.626 C 363.599 299.120,363.678 296.189,363.754 296.113 C 363.830 296.037,364.300 295.896,364.800 295.800 C 366.195 295.531,366.191 295.546,366.334 288.667 C 366.407 285.110,366.606 282.149,366.777 282.086 C 368.515 281.444,368.596 281.102,368.720 273.932 C 368.856 266.041,368.845 266.107,370.035 265.931 C 371.256 265.750,372.004 264.507,371.200 263.995 C 370.860 263.778,370.802 263.610,371.066 263.606 C 371.400 263.602,371.546 261.711,371.580 256.938 C 371.632 249.804,371.679 249.502,372.678 249.885 C 373.165 250.072,373.244 249.992,372.989 249.568 C 372.714 249.112,372.795 249.119,373.400 249.600 C 373.814 249.930,374.026 249.987,373.870 249.728 C 373.714 249.468,373.782 249.135,374.021 248.987 C 374.260 248.839,374.426 247.972,374.391 247.059 C 374.120 240.142,374.405 236.092,375.176 235.890 C 376.623 235.512,377.076 233.404,377.161 226.644 C 377.224 221.723,377.372 220.171,377.821 219.722 C 378.184 219.359,378.400 219.313,378.400 219.600 C 378.400 219.888,378.613 219.844,378.976 219.481 C 379.292 219.165,379.540 218.387,379.525 217.753 C 379.351 210.056,379.648 204.000,380.200 204.000 C 380.530 204.000,380.803 203.775,380.806 203.500 C 380.811 203.115,380.888 203.119,381.141 203.519 C 381.407 203.937,381.564 203.925,381.952 203.458 C 382.330 203.003,382.322 202.833,381.917 202.670 C 381.521 202.512,381.517 202.456,381.900 202.432 C 382.277 202.408,382.400 200.876,382.400 196.200 C 382.400 191.064,382.499 190.000,382.977 190.000 C 383.633 190.000,384.866 188.430,384.577 187.962 C 384.472 187.794,384.558 187.550,384.766 187.421 C 384.978 187.290,385.160 184.324,385.179 180.721 C 385.197 177.165,385.254 174.215,385.306 174.166 C 385.358 174.116,385.760 174.014,386.200 173.938 C 387.295 173.749,387.649 173.144,387.077 172.437 C 386.719 171.994,386.718 171.917,387.071 172.129 C 387.634 172.466,388.090 171.254,387.987 169.692 C 387.948 169.092,387.934 166.227,387.958 163.327 L 388.000 158.053 389.100 157.927 C 390.383 157.779,390.300 158.288,390.357 150.143 L 390.400 144.087 391.400 143.836 C 392.271 143.617,392.617 142.976,392.447 141.900 C 392.421 141.735,392.591 141.600,392.825 141.600 C 393.059 141.600,393.218 141.285,393.179 140.900 C 393.018 139.315,393.279 127.439,393.465 127.900 C 393.576 128.175,393.851 128.400,394.076 128.400 C 394.301 128.400,394.387 128.143,394.267 127.829 C 394.146 127.515,394.277 127.068,394.557 126.836 C 394.930 126.526,395.067 126.568,395.067 126.989 C 395.067 127.306,394.889 127.455,394.672 127.321 C 394.449 127.183,394.402 127.280,394.566 127.545 C 395.019 128.279,395.541 127.701,395.420 126.598 C 395.359 126.049,395.465 125.600,395.655 125.600 C 395.845 125.600,396.000 122.540,396.000 118.800 C 396.000 112.351,396.040 112.000,396.771 112.000 C 398.635 112.000,398.733 111.447,398.759 100.740 C 398.784 90.189,398.652 88.618,397.771 88.956 C 397.433 89.085,397.321 88.949,397.463 88.580 C 397.614 88.186,397.414 88.000,396.843 88.000 C 396.019 88.000,395.670 85.328,395.976 81.366 C 396.011 80.907,395.761 80.300,395.420 80.017 C 395.079 79.734,394.800 79.642,394.800 79.813 C 394.800 81.202,393.332 78.453,393.252 76.915 C 393.198 75.872,392.939 74.882,392.677 74.715 C 392.329 74.494,392.325 74.411,392.663 74.406 C 393.557 74.394,392.676 72.684,391.558 72.262 C 390.720 71.945,390.409 71.533,390.319 70.620 C 390.222 69.622,389.999 69.377,389.100 69.273 C 388.184 69.168,388.000 68.954,388.000 67.997 C 388.000 67.365,387.828 66.741,387.617 66.611 C 387.407 66.481,387.337 66.108,387.462 65.782 C 387.759 65.008,386.904 64.000,385.951 64.000 C 385.467 64.000,385.200 63.716,385.200 63.200 C 385.200 62.760,385.026 62.400,384.813 62.400 C 384.599 62.400,384.540 62.101,384.680 61.736 C 384.882 61.209,384.756 61.118,384.067 61.298 C 383.504 61.445,383.293 61.374,383.465 61.095 C 383.633 60.822,383.487 60.758,383.066 60.919 C 382.538 61.122,382.400 60.931,382.400 59.995 C 382.400 58.788,381.020 57.970,380.023 58.586 C 379.769 58.743,379.600 58.449,379.600 57.852 C 379.600 56.299,378.598 55.600,376.371 55.600 C 374.908 55.600,374.387 55.445,374.350 55.000 C 374.322 54.670,374.255 54.220,374.200 54.000 C 374.145 53.780,374.078 53.420,374.050 53.200 C 374.023 52.980,373.565 52.800,373.033 52.800 C 371.529 52.800,370.612 52.363,371.266 51.959 C 372.293 51.324,370.598 50.282,368.220 50.085 C 366.409 49.935,366.000 49.767,366.000 49.174 C 366.000 48.048,365.291 47.815,361.200 47.600 C 357.903 47.426,357.415 47.310,357.514 46.717 C 357.748 45.310,355.641 44.801,349.520 44.787 C 343.738 44.773,342.000 44.332,342.000 42.879 C 342.000 42.206,341.190 42.113,334.641 42.034 C 328.413 41.959,328.266 41.938,327.512 40.979 C 327.088 40.440,326.395 40.000,325.971 40.000 C 325.547 40.000,325.200 39.806,325.200 39.569 C 325.200 39.326,324.547 39.169,323.700 39.208 C 322.875 39.246,319.917 39.260,317.127 39.239 L 312.053 39.200 311.927 38.100 L 311.800 37.000 303.682 36.892 C 298.020 36.816,295.644 36.653,295.829 36.354 C 295.975 36.117,295.861 35.487,295.576 34.954 C 295.197 34.247,294.970 34.122,294.734 34.492 C 294.515 34.839,294.410 34.853,294.406 34.536 C 294.402 34.207,292.626 34.058,288.300 34.022 C 284.760 33.993,282.144 33.809,282.066 33.583 C 281.992 33.370,281.787 33.284,281.611 33.393 C 281.435 33.502,281.045 33.278,280.745 32.896 C 280.252 32.266,280.267 32.252,280.900 32.749 C 281.390 33.134,281.600 33.157,281.600 32.829 C 281.600 31.777,278.977 31.299,272.829 31.228 C 266.728 31.158,265.084 30.759,265.842 29.532 C 265.936 29.380,265.830 29.142,265.607 29.004 C 265.383 28.866,265.200 28.956,265.200 29.205 C 265.200 29.459,264.913 29.370,264.545 29.003 C 264.179 28.636,263.344 28.377,262.645 28.415 C 261.960 28.451,258.847 28.463,255.727 28.441 L 250.053 28.400 249.927 27.300 L 249.800 26.200 243.400 26.091 C 236.213 25.968,236.000 25.932,236.000 24.844 C 236.000 24.122,233.964 23.047,232.947 23.232 C 232.756 23.266,229.858 23.273,226.508 23.247 L 220.415 23.200 220.158 22.176 C 219.990 21.506,219.704 21.228,219.330 21.372 C 219.016 21.492,218.860 21.426,218.985 21.224 C 219.272 20.760,217.919 20.319,216.492 20.413 C 211.658 20.730,204.000 20.355,204.000 19.800 C 204.000 19.470,203.775 19.197,203.500 19.194 C 203.140 19.189,203.155 19.090,203.554 18.837 C 204.747 18.081,202.479 17.699,196.406 17.632 C 191.413 17.577,190.147 17.449,189.881 16.973 C 189.699 16.649,189.354 16.505,189.114 16.653 C 188.859 16.811,188.790 16.740,188.949 16.482 C 189.545 15.519,187.479 15.200,180.639 15.200 C 174.261 15.200,173.648 15.140,173.881 14.534 C 174.045 14.106,173.979 13.966,173.696 14.141 C 173.453 14.291,173.139 14.226,172.998 13.997 C 172.856 13.768,172.889 13.630,173.070 13.690 C 173.252 13.751,173.400 13.620,173.400 13.400 C 173.400 13.180,173.265 13.045,173.100 13.100 C 172.935 13.155,172.800 13.020,172.800 12.800 C 172.800 12.547,169.992 12.400,165.176 12.400 C 159.923 12.400,157.634 12.269,157.814 11.977 C 158.421 10.995,157.603 9.541,156.485 9.614 C 149.995 10.038,144.116 9.573,143.673 8.600 C 143.422 8.050,143.011 7.600,142.760 7.600 C 142.451 7.600,142.481 7.828,142.851 8.300 C 143.337 8.919,143.327 8.943,142.763 8.503 C 142.413 8.230,141.998 8.135,141.842 8.291 C 141.686 8.448,141.688 8.235,141.848 7.818 C 142.081 7.213,142.001 7.114,141.449 7.326 C 141.069 7.472,140.859 7.428,140.982 7.229 C 141.105 7.030,140.529 6.871,139.703 6.875 C 130.869 6.918,128.400 6.776,128.400 6.229 C 128.400 5.148,127.197 4.307,126.481 4.886 C 126.079 5.211,125.949 5.228,126.127 4.933 C 126.336 4.584,124.610 4.453,119.323 4.418 C 111.496 4.367,111.897 4.448,111.840 2.907 L 111.800 1.800 100.264 1.717 C 90.487 1.646,88.760 1.719,88.943 2.196 M172.744 75.049 C 173.429 75.186,174.440 75.716,174.992 76.228 C 175.822 76.997,176.603 77.203,179.498 77.417 C 183.948 77.746,185.831 78.224,186.511 79.194 C 186.965 79.842,187.747 80.008,191.425 80.237 C 195.878 80.514,198.000 81.151,198.000 82.210 C 198.000 82.677,198.617 82.800,200.945 82.800 C 205.045 82.800,208.050 83.420,208.896 84.439 C 209.488 85.153,210.290 85.336,214.296 85.672 C 218.249 86.003,219.198 86.216,220.240 87.007 C 221.237 87.765,222.173 87.999,225.040 88.208 C 229.170 88.510,231.069 88.997,232.232 90.056 C 232.883 90.647,233.934 90.866,237.032 91.056 C 241.099 91.305,243.600 92.063,243.600 93.046 C 243.600 93.463,244.266 93.601,246.300 93.602 C 250.528 93.606,253.685 94.242,254.518 95.257 C 255.144 96.021,255.830 96.178,259.918 96.490 C 264.016 96.803,264.725 96.966,265.600 97.793 C 266.430 98.578,267.178 98.780,270.000 98.987 C 275.067 99.358,275.867 99.540,277.140 100.611 C 278.152 101.462,278.844 101.623,282.452 101.844 C 286.681 102.104,289.200 102.851,289.200 103.846 C 289.200 104.254,289.808 104.400,291.511 104.400 C 295.304 104.400,295.600 104.802,295.600 109.963 C 295.600 114.572,295.154 116.582,293.996 117.202 C 293.410 117.516,293.225 118.318,293.004 121.494 C 292.667 126.339,292.191 128.274,291.183 128.904 C 290.537 129.307,290.399 129.848,290.396 131.996 C 290.385 138.348,289.792 139.005,284.144 138.926 C 279.110 138.855,277.247 138.492,276.215 137.378 C 275.452 136.555,274.805 136.406,270.607 136.083 C 266.187 135.744,265.799 135.646,264.950 134.660 C 264.144 133.723,263.747 133.600,261.519 133.598 C 257.461 133.594,254.303 132.944,253.482 131.943 C 252.795 131.104,249.591 130.553,244.682 130.428 C 244.065 130.413,243.133 129.969,242.603 129.439 C 241.773 128.609,241.108 128.438,237.728 128.184 C 233.146 127.841,231.775 127.503,230.636 126.437 C 229.993 125.835,228.971 125.593,226.200 125.389 C 221.712 125.058,219.776 124.583,219.115 123.651 C 218.693 123.058,217.822 122.882,214.317 122.686 C 210.028 122.446,208.768 122.089,207.617 120.783 C 207.132 120.234,206.090 120.034,202.740 119.848 C 198.129 119.593,198.000 119.647,198.000 121.836 C 198.000 122.370,197.460 123.372,196.800 124.063 C 195.653 125.263,195.600 125.474,195.600 128.833 C 195.600 132.531,195.225 134.080,194.011 135.400 C 193.446 136.014,193.176 137.313,192.848 141.000 C 192.457 145.395,192.336 145.869,191.410 146.615 C 190.510 147.341,190.397 147.733,190.376 150.215 C 190.341 154.324,189.851 156.681,188.800 157.800 C 188.014 158.636,187.826 159.409,187.552 162.929 C 187.198 167.457,186.912 168.513,185.642 169.961 C 184.999 170.696,184.801 171.451,184.805 173.161 C 184.815 177.172,184.737 177.095,189.138 177.387 C 193.132 177.652,196.172 178.464,196.700 179.407 C 196.909 179.780,198.474 180.062,201.713 180.310 C 206.018 180.641,206.518 180.763,207.533 181.736 C 208.480 182.643,208.994 182.800,211.022 182.802 C 214.910 182.806,218.015 183.468,219.168 184.539 C 220.079 185.385,220.705 185.527,224.499 185.745 C 228.662 185.984,230.400 186.489,230.400 187.459 C 230.400 187.764,231.745 188.015,234.300 188.186 C 239.533 188.536,240.374 188.730,241.391 189.828 C 242.163 190.661,242.746 190.795,246.630 191.033 C 250.885 191.293,253.600 192.150,253.600 193.233 C 253.600 193.435,254.827 193.600,256.327 193.600 C 260.284 193.600,263.623 194.302,264.800 195.383 C 265.350 195.887,266.340 196.472,267.000 196.682 C 269.025 197.326,269.017 203.921,266.989 205.684 C 266.121 206.439,266.000 206.872,266.000 209.218 C 266.000 213.154,265.361 216.066,264.307 216.939 C 263.508 217.601,263.392 218.152,263.201 222.186 C 262.979 226.853,262.984 226.839,260.716 229.346 C 259.233 230.985,255.141 231.038,253.743 229.436 C 252.978 228.561,252.458 228.426,248.943 228.194 C 244.438 227.896,242.781 227.484,241.822 226.424 C 241.315 225.864,240.333 225.615,237.874 225.423 C 232.724 225.020,231.647 224.787,230.486 223.821 C 229.584 223.071,228.756 222.879,225.600 222.692 C 221.493 222.449,219.817 221.983,218.690 220.774 C 218.121 220.163,217.403 219.995,215.284 219.976 C 210.988 219.938,208.856 219.452,207.749 218.258 C 206.831 217.268,206.540 217.200,203.244 217.200 C 199.500 217.200,197.394 216.695,196.406 215.560 C 195.938 215.023,194.718 214.774,191.059 214.468 C 186.846 214.115,186.200 213.960,185.259 213.072 C 184.321 212.188,183.810 212.063,180.800 211.985 C 176.364 211.869,176.529 211.829,176.214 213.100 C 176.064 213.705,175.558 214.610,175.091 215.110 C 174.376 215.876,174.201 216.702,173.988 220.310 C 173.739 224.539,173.401 225.803,172.268 226.744 C 171.909 227.041,171.593 228.388,171.429 230.311 C 170.953 235.899,170.729 236.904,169.764 237.799 C 168.968 238.536,168.806 239.177,168.595 242.427 C 168.278 247.320,168.172 247.773,167.057 248.976 C 166.240 249.858,166.091 250.522,165.881 254.232 C 165.702 257.391,165.456 258.738,164.920 259.492 C 163.392 261.643,163.212 262.272,163.206 265.474 C 163.200 268.927,162.810 270.486,161.625 271.800 C 160.713 272.812,160.146 277.145,160.895 277.380 C 161.173 277.467,162.095 277.654,162.945 277.795 C 163.794 277.937,164.922 278.486,165.451 279.014 C 166.304 279.868,166.892 280.004,170.706 280.234 C 174.920 280.488,176.563 280.992,177.320 282.263 C 177.538 282.629,178.510 282.800,180.365 282.800 C 184.080 282.800,186.888 283.388,188.690 284.544 C 189.920 285.332,190.932 285.559,194.148 285.767 C 198.031 286.019,199.511 286.429,200.096 287.416 C 200.273 287.714,201.731 288.021,203.696 288.175 C 209.028 288.592,210.063 288.827,210.997 289.835 C 211.781 290.680,212.344 290.807,216.432 291.055 C 220.735 291.316,221.058 291.396,222.128 292.466 C 223.127 293.466,223.554 293.600,225.731 293.602 C 229.565 293.606,232.803 294.263,233.854 295.251 C 234.631 295.981,235.517 296.183,239.291 296.493 C 243.019 296.798,244.008 297.021,245.004 297.778 C 245.666 298.282,246.779 298.820,247.476 298.973 C 249.472 299.411,249.756 300.056,249.660 303.929 C 249.563 307.866,249.050 309.926,247.950 310.805 C 247.318 311.309,247.149 312.172,246.929 316.002 C 246.685 320.281,246.593 320.668,245.593 321.668 C 244.615 322.646,244.500 323.092,244.296 326.671 C 244.173 328.832,243.891 331.067,243.669 331.639 C 242.737 334.041,235.045 334.261,232.159 331.967 C 230.912 330.977,230.320 330.796,228.245 330.771 C 224.104 330.721,221.569 330.217,220.851 329.298 C 220.310 328.606,219.593 328.424,216.600 328.216 C 212.189 327.909,209.722 327.310,209.076 326.387 C 208.691 325.838,207.580 325.596,203.895 325.259 C 199.074 324.818,197.867 324.472,197.460 323.411 C 197.284 322.953,196.596 322.799,194.713 322.798 C 190.697 322.794,187.598 322.144,186.432 321.061 C 185.520 320.214,184.896 320.073,181.054 319.852 C 176.962 319.617,176.628 319.532,175.340 318.401 C 174.037 317.257,173.802 317.200,170.373 317.200 C 166.659 317.200,164.186 316.550,163.769 315.463 C 163.613 315.057,162.536 314.814,160.075 314.628 C 154.388 314.198,153.277 313.967,152.311 313.016 C 151.529 312.246,150.821 312.085,147.306 311.877 C 143.224 311.635,142.117 311.325,140.600 310.002 C 139.991 309.471,138.751 309.243,135.418 309.051 C 131.248 308.810,130.976 308.740,129.799 307.599 C 128.610 306.446,128.422 306.400,124.941 306.400 C 120.950 306.400,118.994 305.911,118.377 304.758 C 118.101 304.242,117.537 304.000,116.612 304.000 C 112.797 304.000,112.185 302.792,112.763 296.404 C 113.142 292.214,113.270 291.727,114.190 290.985 C 115.085 290.263,115.200 289.871,115.200 287.540 C 115.200 283.847,115.845 280.867,117.006 279.191 C 117.779 278.075,118.006 277.229,118.029 275.378 C 118.083 271.014,118.569 268.836,119.732 267.758 C 120.718 266.843,120.800 266.522,120.800 263.561 C 120.800 259.624,121.427 256.909,122.408 256.597 C 123.009 256.407,123.172 255.730,123.398 252.485 C 123.735 247.630,124.208 245.731,125.214 245.193 C 125.878 244.837,126.000 244.347,126.000 242.041 C 126.000 238.286,126.645 235.216,127.663 234.133 C 128.360 233.391,128.578 232.470,128.852 229.112 C 129.272 223.978,129.352 223.662,130.590 222.238 C 131.482 221.211,131.600 220.716,131.600 217.988 C 131.600 213.974,131.892 212.633,133.035 211.400 C 133.825 210.548,134.012 209.809,134.225 206.694 C 134.555 201.883,135.012 200.113,136.009 199.797 C 136.702 199.577,136.800 199.184,136.800 196.628 C 136.800 192.560,137.422 189.548,138.435 188.707 C 139.125 188.135,139.330 187.328,139.613 184.064 C 140.045 179.092,140.302 178.024,141.337 176.884 C 142.022 176.130,142.211 175.251,142.407 171.884 C 142.635 167.993,143.452 165.200,144.363 165.200 C 144.552 165.200,144.822 163.805,144.963 162.100 C 145.467 156.023,145.643 155.193,146.622 154.279 C 147.439 153.516,147.595 152.899,147.806 149.600 C 148.123 144.648,148.223 144.233,149.403 142.959 C 150.243 142.052,150.400 141.492,150.400 139.396 C 150.400 135.679,151.057 132.719,152.067 131.881 C 152.830 131.250,152.964 130.622,153.180 126.681 C 153.429 122.147,153.558 121.638,154.822 120.200 C 155.342 119.608,155.637 118.158,155.954 114.631 C 156.335 110.392,156.495 109.745,157.390 108.810 C 158.277 107.885,158.425 107.306,158.624 103.979 C 158.920 99.060,159.021 98.634,160.203 97.359 C 161.043 96.452,161.200 95.892,161.200 93.796 C 161.200 89.977,161.863 87.149,163.008 86.088 C 163.911 85.250,164.000 84.868,164.000 81.844 C 164.000 75.454,166.205 73.741,172.744 75.049 " stroke="none" fill="#048cd4" fill-rule="evenodd"></path><path id="path4" d="M165.942 75.407 C 164.504 76.188,163.990 77.917,164.054 81.760 C 164.084 83.542,164.173 84.550,164.252 84.000 C 165.010 78.707,165.306 77.640,166.262 76.743 C 167.619 75.469,171.067 75.469,173.447 76.744 C 174.514 77.315,176.418 77.776,178.847 78.052 C 181.094 78.307,183.402 78.845,184.600 79.392 C 185.700 79.894,187.860 80.429,189.400 80.580 C 192.913 80.925,195.210 81.505,196.058 82.261 C 196.456 82.616,198.507 83.057,201.258 83.378 C 204.676 83.778,206.285 84.168,207.760 84.954 C 208.982 85.606,210.354 86.000,211.405 86.000 C 213.858 86.000,217.127 86.694,219.041 87.620 C 219.973 88.071,222.363 88.621,224.455 88.867 C 226.820 89.144,228.863 89.642,230.000 90.216 C 231.058 90.751,232.955 91.238,234.600 91.395 C 238.358 91.755,240.858 92.328,241.598 92.999 C 242.233 93.573,246.410 94.392,248.733 94.397 C 249.466 94.399,251.266 94.918,252.733 95.550 C 254.558 96.337,256.398 96.779,258.562 96.950 C 260.679 97.118,262.416 97.528,263.820 98.192 C 265.194 98.842,267.276 99.343,269.858 99.644 C 272.335 99.933,274.320 100.400,275.200 100.901 C 276.055 101.387,278.224 101.911,280.771 102.247 C 283.065 102.550,285.679 103.154,286.580 103.590 C 287.481 104.026,289.551 104.635,291.179 104.943 C 294.507 105.572,295.200 106.169,295.200 108.403 C 295.200 110.692,294.415 114.347,293.578 115.952 C 293.131 116.811,292.657 118.918,292.440 121.018 C 292.099 124.312,291.446 126.684,290.736 127.207 C 290.581 127.320,290.157 129.480,289.793 132.007 C 288.918 138.084,288.788 138.219,283.858 138.143 C 280.791 138.096,279.799 137.915,278.172 137.105 C 276.888 136.466,274.895 135.969,272.460 135.678 C 270.385 135.431,267.974 134.872,267.046 134.422 C 265.136 133.498,261.862 132.800,259.435 132.800 C 258.403 132.800,256.880 132.353,255.390 131.613 C 253.741 130.793,252.380 130.418,251.000 130.403 C 248.542 130.375,246.034 129.818,243.807 128.803 C 242.878 128.380,240.427 127.833,238.359 127.588 C 235.918 127.298,233.878 126.791,232.540 126.143 C 231.138 125.464,229.350 125.037,226.940 124.806 C 223.184 124.447,222.167 124.191,221.194 123.362 C 220.861 123.079,218.431 122.536,215.794 122.158 C 212.601 121.699,210.413 121.157,209.240 120.534 C 208.159 119.960,206.772 119.593,205.640 119.583 C 203.889 119.566,201.865 119.247,199.544 118.620 C 197.921 118.182,195.734 122.498,195.197 127.200 C 194.766 130.967,194.418 132.340,193.374 134.373 C 192.956 135.186,192.539 137.280,192.351 139.511 C 192.126 142.174,191.789 143.692,191.197 144.694 C 190.655 145.613,190.145 147.676,189.747 150.556 C 189.390 153.140,188.830 155.502,188.409 156.200 C 187.563 157.605,187.305 158.702,186.836 162.891 C 186.640 164.640,186.124 166.685,185.645 167.603 C 184.456 169.885,184.454 171.317,185.642 169.961 C 186.912 168.513,187.198 167.457,187.552 162.929 C 187.826 159.409,188.014 158.636,188.800 157.800 C 189.851 156.681,190.341 154.324,190.376 150.215 C 190.397 147.733,190.510 147.341,191.410 146.615 C 192.336 145.869,192.457 145.395,192.848 141.000 C 193.176 137.313,193.446 136.014,194.011 135.400 C 195.225 134.080,195.600 132.531,195.600 128.833 C 195.600 125.474,195.653 125.263,196.800 124.063 C 197.460 123.372,198.000 122.370,198.000 121.836 C 198.000 119.647,198.129 119.593,202.740 119.848 C 206.090 120.034,207.132 120.234,207.617 120.783 C 208.768 122.089,210.028 122.446,214.317 122.686 C 217.822 122.882,218.693 123.058,219.115 123.651 C 219.776 124.583,221.712 125.058,226.200 125.389 C 228.971 125.593,229.993 125.835,230.636 126.437 C 231.775 127.503,233.146 127.841,237.728 128.184 C 241.108 128.438,241.773 128.609,242.603 129.439 C 243.133 129.969,244.065 130.413,244.682 130.428 C 249.591 130.553,252.795 131.104,253.482 131.943 C 254.303 132.944,257.461 133.594,261.519 133.598 C 263.747 133.600,264.144 133.723,264.950 134.660 C 265.799 135.646,266.187 135.744,270.607 136.083 C 274.805 136.406,275.452 136.555,276.215 137.378 C 277.247 138.492,279.110 138.855,284.144 138.926 C 289.792 139.005,290.385 138.348,290.396 131.996 C 290.399 129.848,290.537 129.307,291.183 128.904 C 292.191 128.274,292.667 126.339,293.004 121.494 C 293.225 118.318,293.410 117.516,293.996 117.202 C 295.154 116.582,295.600 114.572,295.600 109.963 C 295.600 104.802,295.304 104.400,291.511 104.400 C 289.808 104.400,289.200 104.254,289.200 103.846 C 289.200 102.851,286.681 102.104,282.452 101.844 C 278.844 101.623,278.152 101.462,277.140 100.611 C 275.867 99.540,275.067 99.358,270.000 98.987 C 267.178 98.780,266.430 98.578,265.600 97.793 C 264.725 96.966,264.016 96.803,259.918 96.490 C 255.830 96.178,255.144 96.021,254.518 95.257 C 253.685 94.242,250.528 93.606,246.300 93.602 C 244.266 93.601,243.600 93.463,243.600 93.046 C 243.600 92.063,241.099 91.305,237.032 91.056 C 233.934 90.866,232.883 90.647,232.232 90.056 C 231.069 88.997,229.170 88.510,225.040 88.208 C 222.173 87.999,221.237 87.765,220.240 87.007 C 219.198 86.216,218.249 86.003,214.296 85.672 C 210.290 85.336,209.488 85.153,208.896 84.439 C 208.050 83.420,205.045 82.800,200.945 82.800 C 198.617 82.800,198.000 82.677,198.000 82.210 C 198.000 81.151,195.878 80.514,191.425 80.237 C 187.747 80.008,186.965 79.842,186.511 79.194 C 185.831 78.224,183.948 77.746,179.498 77.417 C 176.603 77.203,175.822 76.997,174.992 76.228 C 173.366 74.720,168.087 74.241,165.942 75.407 M162.907 86.166 C 161.869 87.153,161.200 90.142,161.200 93.796 C 161.200 95.892,161.043 96.452,160.203 97.359 C 159.021 98.634,158.920 99.060,158.624 103.979 C 158.425 107.306,158.277 107.885,157.390 108.810 C 156.495 109.745,156.335 110.392,155.954 114.631 C 155.637 118.158,155.342 119.608,154.822 120.200 C 153.558 121.638,153.429 122.147,153.180 126.681 C 152.964 130.622,152.830 131.250,152.067 131.881 C 151.057 132.719,150.400 135.679,150.400 139.396 C 150.400 141.492,150.243 142.052,149.403 142.959 C 148.223 144.233,148.123 144.648,147.806 149.600 C 147.595 152.899,147.439 153.516,146.622 154.279 C 145.643 155.193,145.467 156.023,144.963 162.100 C 144.822 163.805,144.552 165.200,144.363 165.200 C 143.452 165.200,142.635 167.993,142.407 171.884 C 142.211 175.251,142.022 176.130,141.337 176.884 C 140.302 178.024,140.045 179.092,139.613 184.064 C 139.330 187.328,139.125 188.135,138.435 188.707 C 137.422 189.548,136.800 192.560,136.800 196.628 C 136.800 199.184,136.702 199.577,136.009 199.797 C 135.012 200.113,134.555 201.883,134.225 206.694 C 134.012 209.809,133.825 210.548,133.035 211.400 C 131.882 212.644,131.589 214.020,131.640 217.950 L 131.679 221.000 132.186 217.738 C 132.464 215.943,133.106 213.620,133.613 212.574 C 134.235 211.289,134.628 209.527,134.826 207.138 C 135.032 204.642,135.371 203.176,135.979 202.146 C 136.555 201.170,137.035 199.220,137.433 196.244 C 137.821 193.349,138.367 191.103,139.000 189.800 C 139.661 188.443,140.089 186.619,140.333 184.123 C 140.571 181.700,140.966 179.985,141.492 179.093 C 141.931 178.349,142.413 176.674,142.562 175.370 C 143.007 171.498,143.638 168.751,144.437 167.220 C 144.886 166.357,145.352 164.189,145.598 161.814 C 145.883 159.074,146.270 157.410,146.853 156.425 C 147.407 155.490,147.886 153.555,148.245 150.800 C 148.575 148.273,149.182 145.724,149.769 144.400 C 150.371 143.040,150.900 140.779,151.154 138.475 C 151.412 136.142,151.851 134.275,152.331 133.475 C 152.799 132.697,153.347 130.434,153.736 127.668 C 154.141 124.792,154.662 122.670,155.163 121.860 C 155.690 121.008,156.082 119.316,156.342 116.779 C 156.597 114.286,157.070 112.221,157.716 110.788 C 158.331 109.422,158.884 107.096,159.187 104.600 C 159.479 102.199,159.964 100.120,160.402 99.400 C 161.178 98.123,162.000 94.355,162.000 92.077 C 162.000 91.319,162.469 89.655,163.042 88.377 C 164.238 85.712,164.191 84.945,162.907 86.166 M184.470 174.076 C 184.388 177.701,184.187 177.519,188.891 178.071 C 191.223 178.344,193.268 178.844,194.400 179.416 C 195.458 179.951,197.355 180.438,199.000 180.595 C 202.706 180.951,205.249 181.525,205.994 182.175 C 206.636 182.736,210.983 183.600,213.166 183.600 C 213.881 183.600,215.696 184.140,217.200 184.800 C 218.712 185.464,220.634 186.000,221.500 186.000 C 223.703 186.000,227.686 186.820,228.400 187.421 C 229.222 188.112,231.640 188.684,235.121 189.011 C 236.928 189.181,238.684 189.627,239.727 190.182 C 240.780 190.742,242.537 191.185,244.407 191.362 C 247.951 191.699,250.372 192.278,251.200 192.990 C 251.879 193.573,256.257 194.400,258.665 194.400 C 259.584 194.400,261.102 194.827,262.232 195.404 C 263.314 195.957,264.844 196.585,265.631 196.801 C 268.299 197.533,268.548 200.076,266.393 204.600 C 265.942 205.547,265.523 207.588,265.366 209.600 C 265.186 211.913,264.806 213.600,264.178 214.877 C 263.671 215.910,263.144 217.620,263.007 218.677 C 261.709 228.715,259.902 231.033,255.085 228.839 C 254.080 228.381,251.529 227.811,249.339 227.555 C 246.559 227.231,244.904 226.814,243.713 226.139 C 242.471 225.434,241.016 225.086,238.189 224.819 C 235.636 224.577,233.807 224.172,232.723 223.607 C 231.760 223.105,229.359 222.514,226.847 222.160 C 224.391 221.814,221.968 221.222,221.102 220.757 C 220.203 220.273,218.262 219.813,216.246 219.605 C 212.427 219.211,209.796 218.518,209.146 217.735 C 208.902 217.441,208.267 217.200,207.735 217.200 L 206.768 217.200 207.749 218.258 C 208.856 219.452,210.988 219.938,215.284 219.976 C 217.403 219.995,218.121 220.163,218.690 220.774 C 219.817 221.983,221.493 222.449,225.600 222.692 C 228.756 222.879,229.584 223.071,230.486 223.821 C 231.647 224.787,232.724 225.020,237.874 225.423 C 240.333 225.615,241.315 225.864,241.822 226.424 C 242.781 227.484,244.438 227.896,248.943 228.194 C 252.458 228.426,252.978 228.561,253.743 229.436 C 255.141 231.038,259.233 230.985,260.716 229.346 C 262.984 226.839,262.979 226.853,263.201 222.186 C 263.392 218.152,263.508 217.601,264.307 216.939 C 265.361 216.066,266.000 213.154,266.000 209.218 C 266.000 206.872,266.121 206.439,266.989 205.684 C 269.017 203.921,269.025 197.326,267.000 196.682 C 266.340 196.472,265.350 195.887,264.800 195.383 C 263.623 194.302,260.284 193.600,256.327 193.600 C 254.827 193.600,253.600 193.435,253.600 193.233 C 253.600 192.150,250.885 191.293,246.630 191.033 C 242.746 190.795,242.163 190.661,241.391 189.828 C 240.374 188.730,239.533 188.536,234.300 188.186 C 231.745 188.015,230.400 187.764,230.400 187.459 C 230.400 186.489,228.662 185.984,224.499 185.745 C 220.705 185.527,220.079 185.385,219.168 184.539 C 218.015 183.468,214.910 182.806,211.022 182.802 C 208.994 182.800,208.480 182.643,207.533 181.736 C 206.518 180.763,206.018 180.641,201.713 180.310 C 198.474 180.062,196.909 179.780,196.700 179.407 C 196.171 178.463,193.129 177.652,189.111 177.385 L 185.223 177.127 185.013 175.864 C 184.897 175.169,184.744 173.790,184.671 172.800 C 184.594 171.737,184.511 172.259,184.470 174.076 M176.151 211.500 C 174.754 212.767,174.119 214.167,173.837 216.600 C 173.368 220.645,172.712 223.770,172.200 224.400 C 171.504 225.256,171.217 226.523,170.814 230.517 C 170.571 232.924,170.182 234.502,169.581 235.517 C 168.997 236.503,168.523 238.367,168.165 241.081 C 167.852 243.449,167.199 246.177,166.608 247.581 C 165.960 249.121,165.505 251.126,165.356 253.100 C 165.204 255.119,164.794 256.898,164.181 258.200 C 163.623 259.385,162.995 261.930,162.641 264.447 C 162.309 266.803,161.686 269.386,161.243 270.247 C 159.217 274.184,159.552 277.881,162.000 278.598 C 162.550 278.759,163.540 279.209,164.200 279.598 C 164.877 279.996,166.708 280.422,168.400 280.575 C 171.929 280.894,174.365 281.472,175.200 282.190 C 175.876 282.770,180.253 283.600,182.636 283.600 C 183.555 283.600,185.007 284.026,186.137 284.628 C 187.488 285.347,189.108 285.765,191.534 286.020 C 195.270 286.414,196.709 286.765,198.631 287.756 C 199.308 288.104,201.738 288.635,204.031 288.936 C 206.831 289.303,208.660 289.763,209.600 290.339 C 210.370 290.811,211.630 291.204,212.400 291.212 C 214.800 291.239,220.046 292.319,220.739 292.929 C 221.521 293.618,222.638 293.866,227.234 294.371 C 229.505 294.621,231.171 295.046,232.155 295.626 C 233.160 296.220,234.753 296.616,237.073 296.851 C 240.608 297.210,243.600 297.919,243.600 298.399 C 243.600 298.549,244.607 298.914,245.839 299.209 C 249.493 300.086,250.274 303.910,247.795 308.786 C 247.246 309.866,246.765 311.733,246.605 313.400 C 246.264 316.971,245.636 319.627,244.944 320.432 C 244.644 320.779,244.208 322.579,243.974 324.432 C 243.740 326.284,243.463 328.378,243.359 329.084 C 242.813 332.785,238.468 333.928,233.800 331.600 C 232.307 330.855,230.778 330.402,229.755 330.402 C 227.390 330.399,224.274 329.745,222.260 328.828 C 221.302 328.391,218.827 327.820,216.759 327.559 C 214.377 327.258,212.338 326.742,211.193 326.149 C 209.955 325.508,208.178 325.088,205.548 324.815 C 201.444 324.390,200.543 324.171,199.600 323.368 C 199.270 323.087,196.930 322.554,194.400 322.184 C 191.794 321.802,189.107 321.157,188.200 320.695 C 187.213 320.192,185.222 319.745,183.000 319.527 C 180.565 319.288,178.740 318.855,177.360 318.187 C 174.490 316.798,173.619 316.890,175.340 318.401 C 176.628 319.532,176.962 319.617,181.054 319.852 C 184.896 320.073,185.520 320.214,186.432 321.061 C 187.596 322.142,190.696 322.794,194.686 322.798 C 196.709 322.800,197.247 322.940,197.575 323.553 C 198.144 324.617,198.806 324.794,203.987 325.267 C 207.590 325.597,208.692 325.839,209.076 326.387 C 209.722 327.310,212.189 327.909,216.600 328.216 C 219.593 328.424,220.310 328.606,220.851 329.298 C 221.569 330.217,224.104 330.721,228.245 330.771 C 230.320 330.796,230.912 330.977,232.159 331.967 C 235.045 334.261,242.737 334.041,243.669 331.639 C 243.891 331.067,244.173 328.832,244.296 326.671 C 244.500 323.092,244.615 322.646,245.593 321.668 C 246.593 320.668,246.685 320.281,246.929 316.002 C 247.149 312.172,247.318 311.309,247.950 310.805 C 249.050 309.926,249.563 307.866,249.660 303.929 C 249.756 300.056,249.472 299.411,247.476 298.973 C 246.779 298.820,245.666 298.282,245.004 297.778 C 244.008 297.021,243.019 296.798,239.291 296.493 C 235.517 296.183,234.631 295.981,233.854 295.251 C 232.803 294.263,229.565 293.606,225.731 293.602 C 223.554 293.600,223.127 293.466,222.128 292.466 C 221.058 291.396,220.735 291.316,216.432 291.055 C 212.344 290.807,211.781 290.680,210.997 289.835 C 210.063 288.827,209.028 288.592,203.696 288.175 C 201.731 288.021,200.273 287.714,200.096 287.416 C 199.511 286.429,198.031 286.019,194.148 285.767 C 190.932 285.559,189.920 285.332,188.690 284.544 C 186.888 283.388,184.080 282.800,180.365 282.800 C 178.510 282.800,177.538 282.629,177.320 282.263 C 176.563 280.992,174.920 280.488,170.706 280.234 C 166.892 280.004,166.304 279.868,165.451 279.014 C 164.922 278.486,163.794 277.937,162.945 277.795 C 162.095 277.654,161.173 277.467,160.895 277.380 C 160.146 277.145,160.713 272.812,161.625 271.800 C 162.810 270.486,163.200 268.927,163.206 265.474 C 163.212 262.272,163.392 261.643,164.920 259.492 C 165.456 258.738,165.702 257.391,165.881 254.232 C 166.091 250.522,166.240 249.858,167.057 248.976 C 168.172 247.773,168.278 247.320,168.595 242.427 C 168.806 239.177,168.968 238.536,169.764 237.799 C 170.729 236.904,170.953 235.899,171.429 230.311 C 171.593 228.388,171.909 227.041,172.268 226.744 C 173.401 225.803,173.739 224.539,173.988 220.310 C 174.201 216.702,174.376 215.876,175.091 215.110 C 175.558 214.610,176.064 213.705,176.214 213.100 C 176.529 211.829,176.364 211.869,180.800 211.985 C 183.810 212.063,184.321 212.188,185.259 213.072 C 186.200 213.960,186.846 214.115,191.059 214.468 C 194.718 214.774,195.938 215.023,196.406 215.560 C 197.400 216.702,199.516 217.203,203.160 217.158 L 206.600 217.115 203.000 216.617 C 200.788 216.310,198.851 215.789,197.975 215.264 C 196.990 214.673,195.372 214.287,192.731 214.014 C 188.647 213.590,187.744 213.370,186.800 212.569 C 186.470 212.290,184.287 211.777,181.949 211.430 C 176.738 210.658,177.084 210.654,176.151 211.500 M130.968 221.750 C 129.592 223.248,129.234 224.446,128.889 228.709 C 128.585 232.457,128.379 233.371,127.666 234.130 C 126.646 235.216,126.000 238.282,126.000 242.041 C 126.000 244.347,125.878 244.837,125.214 245.193 C 124.208 245.731,123.735 247.630,123.398 252.485 C 123.172 255.730,123.009 256.407,122.408 256.597 C 121.427 256.909,120.800 259.624,120.800 263.561 C 120.800 266.522,120.718 266.843,119.732 267.758 C 118.569 268.836,118.083 271.014,118.029 275.378 C 118.006 277.229,117.779 278.075,117.006 279.191 C 115.845 280.867,115.200 283.847,115.200 287.540 C 115.200 289.871,115.085 290.263,114.190 290.985 C 113.270 291.727,113.142 292.214,112.763 296.404 C 112.185 302.792,112.797 304.000,116.612 304.000 C 117.537 304.000,118.101 304.242,118.377 304.758 C 119.003 305.926,120.978 306.405,124.960 306.351 L 128.600 306.303 125.000 305.831 C 122.827 305.547,120.779 305.017,119.833 304.494 C 118.971 304.018,117.441 303.510,116.433 303.366 C 113.648 302.965,113.200 302.372,113.200 299.084 C 113.200 296.200,113.783 293.446,114.615 292.400 C 115.230 291.627,115.461 290.595,116.001 286.200 C 116.273 283.988,116.757 282.068,117.256 281.220 C 117.802 280.291,118.191 278.590,118.445 276.020 C 118.713 273.309,119.110 271.637,119.812 270.262 C 120.497 268.920,120.932 267.133,121.225 264.462 C 121.519 261.782,121.967 259.948,122.688 258.468 C 123.427 256.953,123.814 255.333,124.025 252.868 C 124.315 249.475,124.898 247.234,125.602 246.799 C 125.796 246.679,126.264 244.425,126.643 241.790 C 127.101 238.600,127.643 236.412,128.266 235.240 C 128.895 234.054,129.200 232.811,129.200 231.424 C 129.200 229.028,130.120 225.200,131.028 223.813 C 131.747 222.717,131.695 220.959,130.968 221.750 M129.813 307.598 C 130.957 308.742,131.211 308.808,135.406 309.050 C 138.750 309.243,139.991 309.471,140.600 310.002 C 142.117 311.325,143.224 311.635,147.306 311.877 C 150.821 312.085,151.529 312.246,152.311 313.016 C 153.277 313.967,154.388 314.198,160.075 314.628 C 162.536 314.814,163.613 315.057,163.769 315.463 C 164.192 316.565,166.646 317.202,170.287 317.155 L 173.800 317.110 170.400 316.633 C 168.492 316.365,166.294 315.774,165.390 315.284 C 164.308 314.699,162.516 314.282,159.936 314.014 C 156.031 313.609,154.270 313.161,153.837 312.461 C 153.616 312.102,151.147 311.623,146.251 310.989 C 145.179 310.850,143.593 310.367,142.726 309.915 C 141.737 309.399,139.788 308.957,137.493 308.726 C 134.982 308.474,133.224 308.053,131.885 307.380 C 129.125 305.994,128.296 306.081,129.813 307.598 " stroke="none" fill="#389cdc" fill-rule="evenodd"></path></g></svg>